<svg width="252" height="196" viewBox="0 0 252 196" fill="none" xmlns="http://www.w3.org/2000/svg">
<path d="M0.72168 1.5323C0.72168 3.82388 0.721694 5.75362 1.51492 8.04519C2.19482 9.61311 3.66793 11.4223 4.1212 12.9902C5.59433 18.0558 6.1609 23.0007 6.1609 28.4281C6.1609 38.9212 6.1609 48.8111 8.42725 58.7011C9.78706 64.7315 13.2999 69.9177 15.9062 75.4657C17.9459 79.5665 20.2123 82.5817 22.7053 86.4412C24.8583 89.9389 25.8782 94.0396 28.1445 97.4166C30.5242 100.914 33.1304 103.206 35.0568 107.065C36.6433 110.201 38.2297 113.458 39.2496 116.955C41.7426 125.157 44.0089 133.479 46.5019 141.801C48.5416 148.434 49.4482 155.188 51.0346 161.943C52.5077 167.852 53.4143 175.933 57.4937 180.516C65.086 189.08 77.7775 195.351 88.656 195.351C95.795 195.231 104.18 196.557 111.206 194.869C116.305 193.663 121.291 192.698 126.277 191.612C139.082 188.597 153.587 193.18 166.505 193.422C177.044 193.542 188.149 190.165 198.461 187.994C208.319 185.823 218.178 183.893 228.15 182.084C234.382 180.999 240.501 180.155 246.394 177.742C247.754 177.139 249.68 176.174 251.72 175.451C250.02 174.848 248.434 174.004 247.074 173.039C242.428 170.023 240.501 163.631 237.215 159.169C235.062 156.153 232.116 152.535 228.943 150.726C226.11 149.037 222.937 147.831 220.104 146.263C213.532 142.524 208.772 135.65 202.88 130.946C195.628 124.916 190.982 116.955 186.109 108.754C183.729 104.653 182.37 101.035 178.63 97.7785C175.57 95.125 172.511 92.4717 169.565 89.577C167.752 87.7679 165.825 85.4763 163.672 84.3908C159.933 82.3405 154.607 81.9787 150.641 81.1344C146.448 80.2901 143.048 79.084 139.309 76.7924C134.889 74.139 130.017 71.9681 125.937 68.8322C122.085 65.817 118.119 63.2842 114.946 59.5453C111.433 55.4446 107.807 51.1027 103.841 47.7256C97.6081 42.5394 91.4889 37.5945 84.6899 33.3731C78.1175 29.1518 71.5451 23.9656 64.5194 20.5885C58.1736 17.5733 50.6947 18.297 44.0089 17.0909C37.2099 15.8848 29.1644 14.7993 22.9319 11.3016C20.7789 9.97492 17.8326 8.88946 15.9062 7.44215C13.5265 5.63301 12.5067 3.1002 9.78707 1.7735C7.18077 0.326189 3.78125 0.688039 0.72168 1.5323Z" fill="url(#paint0_linear_2197_8960)"/>
<defs>
<linearGradient id="paint0_linear_2197_8960" x1="251.742" y1="0.813462" x2="0.676352" y2="0.813462" gradientUnits="userSpaceOnUse">
<stop stop-color="#5F38A7"/>
<stop offset="1" stop-color="#866BD8"/>
</linearGradient>
</defs>
</svg>
