<svg width="20" height="20" viewBox="0 0 20 20" fill="none" xmlns="http://www.w3.org/2000/svg">
<mask id="mask0_2206_44823" style="mask-type:alpha" maskUnits="userSpaceOnUse" x="0" y="0" width="20" height="20">
<rect width="20" height="20" fill="#D9D9D9"/>
</mask>
<g mask="url(#mask0_2206_44823)">
<path d="M4.16699 11.4345V16.4104C4.16699 16.4852 4.19102 16.5467 4.23908 16.5947C4.28713 16.6428 4.34859 16.6668 4.42345 16.6668H15.5772C15.6521 16.6668 15.7135 16.6428 15.7616 16.5947C15.8096 16.5467 15.8337 16.4852 15.8337 16.4104V11.4345H4.16699ZM4.42345 17.9168C4.00915 17.9168 3.65449 17.7693 3.35949 17.4743C3.06449 17.1793 2.91699 16.8247 2.91699 16.4104V5.25662C2.91699 4.84232 3.06449 4.48766 3.35949 4.19266C3.65449 3.89766 4.00915 3.75016 4.42345 3.75016H5.25678C5.43387 3.75016 5.58227 3.81009 5.70199 3.92995C5.82185 4.04982 5.88178 4.19829 5.88178 4.37537C5.88178 4.55259 5.82185 4.701 5.70199 4.82058C5.58227 4.9403 5.43387 5.00016 5.25678 5.00016H4.42345C4.34859 5.00016 4.28713 5.02419 4.23908 5.07225C4.19102 5.1203 4.16699 5.18176 4.16699 5.25662V10.1845H15.8337V5.25662C15.8337 5.18176 15.8096 5.1203 15.7616 5.07225C15.7135 5.02419 15.6521 5.00016 15.5772 5.00016H14.7439C14.5668 5.00016 14.4184 4.94023 14.2987 4.82037C14.1788 4.70051 14.1189 4.55204 14.1189 4.37495C14.1189 4.19773 14.1788 4.04933 14.2987 3.92975C14.4184 3.81002 14.5668 3.75016 14.7439 3.75016H15.5772C15.9915 3.75016 16.3462 3.89766 16.6412 4.19266C16.9362 4.48766 17.0837 4.84232 17.0837 5.25662V16.4104C17.0837 16.8247 16.9362 17.1793 16.6412 17.4743C16.3462 17.7693 15.9915 17.9168 15.5772 17.9168H4.42345ZM9.37533 5.00016H8.33366C8.15658 5.00016 8.00817 4.94023 7.88845 4.82037C7.76859 4.70051 7.70866 4.55204 7.70866 4.37495C7.70866 4.19773 7.76859 4.04933 7.88845 3.92975C8.00817 3.81002 8.15658 3.75016 8.33366 3.75016H9.37533V2.7085C9.37533 2.53141 9.43526 2.38301 9.55512 2.26329C9.67498 2.14343 9.82345 2.0835 10.0005 2.0835C10.1778 2.0835 10.3262 2.14343 10.4457 2.26329C10.5655 2.38301 10.6253 2.53141 10.6253 2.7085V3.75016H11.667C11.8441 3.75016 11.9925 3.81009 12.1122 3.92995C12.2321 4.04982 12.292 4.19829 12.292 4.37537C12.292 4.55259 12.2321 4.701 12.1122 4.82058C11.9925 4.9403 11.8441 5.00016 11.667 5.00016H10.6253V6.04183C10.6253 6.21891 10.5654 6.36738 10.4455 6.48725C10.3257 6.60697 10.1772 6.66683 10.0001 6.66683C9.8229 6.66683 9.67449 6.60697 9.55491 6.48725C9.43519 6.36738 9.37533 6.21891 9.37533 6.04183V5.00016Z" fill="white"/>
</g>
</svg>
