<svg width="20" height="20" viewBox="0 0 20 20" fill="none" xmlns="http://www.w3.org/2000/svg">
<mask id="mask0_2206_44835" style="mask-type:alpha" maskUnits="userSpaceOnUse" x="0" y="0" width="20" height="20">
<rect width="20" height="20" fill="#D9D9D9"/>
</mask>
<g mask="url(#mask0_2206_44835)">
<path d="M15.8337 8.56579V3.58995C15.8337 3.51509 15.8096 3.45364 15.7616 3.40558C15.7135 3.35752 15.6521 3.3335 15.5772 3.3335H4.42345C4.34859 3.3335 4.28713 3.35752 4.23908 3.40558C4.19102 3.45364 4.16699 3.51509 4.16699 3.58995V8.56579H15.8337ZM4.42345 16.2502C4.00915 16.2502 3.65449 16.1027 3.35949 15.8077C3.06449 15.5127 2.91699 15.158 2.91699 14.7437V3.58995C2.91699 3.17565 3.06449 2.821 3.35949 2.526C3.65449 2.231 4.00915 2.0835 4.42345 2.0835H15.5772C15.9915 2.0835 16.3462 2.231 16.6412 2.526C16.9362 2.821 17.0837 3.17565 17.0837 3.58995V14.7437C17.0837 15.158 16.9362 15.5127 16.6412 15.8077C16.3462 16.1027 15.9915 16.2502 15.5772 16.2502H14.7439C14.5668 16.2502 14.4184 16.1902 14.2987 16.0704C14.1788 15.9505 14.1189 15.802 14.1189 15.625C14.1189 15.4477 14.1788 15.2993 14.2987 15.1797C14.4184 15.06 14.5668 15.0002 14.7439 15.0002H15.5772C15.6521 15.0002 15.7135 14.9761 15.7616 14.9281C15.8096 14.88 15.8337 14.8186 15.8337 14.7437V9.81579H4.16699V14.7437C4.16699 14.8186 4.19102 14.88 4.23908 14.9281C4.28713 14.9761 4.34859 15.0002 4.42345 15.0002H5.25678C5.43387 15.0002 5.58227 15.0601 5.70199 15.18C5.82185 15.2998 5.88178 15.4483 5.88178 15.6254C5.88178 15.8026 5.82185 15.951 5.70199 16.0706C5.58227 16.1903 5.43387 16.2502 5.25678 16.2502H4.42345Z" fill="white"/>
<path d="M11.4193 17.0505C11.5886 17.0507 11.7359 16.9881 11.8612 16.8628C11.9864 16.7376 12.049 16.5902 12.049 16.4207C12.0491 16.2513 11.9866 16.104 11.8614 15.9788L11.1248 15.2422L11.8614 14.5056C11.9866 14.3804 12.0492 14.2331 12.0492 14.0638C12.0494 13.8945 11.9868 13.7472 11.8615 13.6219C11.7363 13.4967 11.5889 13.4341 11.4194 13.4341C11.25 13.434 11.1027 13.4965 10.9775 13.6217L10.2409 14.3583L9.50434 13.6217C9.37912 13.4965 9.23181 13.4339 9.06239 13.4338C8.89318 13.4337 8.74592 13.4963 8.6206 13.6216C8.49538 13.7468 8.43273 13.8941 8.43263 14.0635C8.43263 14.233 8.49524 14.3804 8.62045 14.5056L9.35702 15.2422L8.62045 15.9788C8.49524 16.104 8.43263 16.2512 8.43263 16.4206C8.43243 16.5899 8.49499 16.7372 8.62031 16.8625C8.74552 16.9877 8.89289 17.0503 9.06239 17.0503C9.23181 17.0504 9.37912 16.9879 9.50434 16.8626L10.2409 16.1261L10.9775 16.8626C11.1027 16.9879 11.25 17.0505 11.4193 17.0505Z" fill="white"/>
</g>
</svg>
