<svg width="24" height="24" viewBox="0 0 24 24" fill="none" xmlns="http://www.w3.org/2000/svg">
<mask id="mask0_2206_22576" style="mask-type:alpha" maskUnits="userSpaceOnUse" x="0" y="0" width="24" height="24">
<rect width="24" height="24" fill="#D9D9D9"/>
</mask>
<g mask="url(#mask0_2206_22576)">
<path d="M11.5 12.5V16C11.5 16.1417 11.548 16.2604 11.644 16.3562C11.74 16.4521 11.8589 16.5 12.0008 16.5C12.1426 16.5 12.2612 16.4521 12.3567 16.3562C12.4522 16.2604 12.5 16.1417 12.5 16V12.5H16C16.1417 12.5 16.2604 12.452 16.3562 12.356C16.4521 12.26 16.5 12.1411 16.5 11.9993C16.5 11.8574 16.4521 11.7388 16.3562 11.6433C16.2604 11.5478 16.1417 11.5 16 11.5H12.5V8C12.5 7.85833 12.452 7.73958 12.356 7.64375C12.26 7.54792 12.1411 7.5 11.9993 7.5C11.8574 7.5 11.7388 7.54792 11.6433 7.64375C11.5478 7.73958 11.5 7.85833 11.5 8V11.5H8C7.85833 11.5 7.73958 11.548 7.64375 11.644C7.54792 11.74 7.5 11.8589 7.5 12.0008C7.5 12.1426 7.54792 12.2612 7.64375 12.3567C7.73958 12.4522 7.85833 12.5 8 12.5H11.5ZM12.0033 21C10.7587 21 9.58867 20.7638 8.493 20.2915C7.3975 19.8192 6.4445 19.1782 5.634 18.3685C4.8235 17.5588 4.18192 16.6067 3.70925 15.512C3.23642 14.4175 3 13.2479 3 12.0033C3 10.7587 3.23617 9.58867 3.7085 8.493C4.18083 7.3975 4.82183 6.4445 5.6315 5.634C6.44117 4.8235 7.39333 4.18192 8.488 3.70925C9.5825 3.23642 10.7521 3 11.9967 3C13.2413 3 14.4113 3.23617 15.507 3.7085C16.6025 4.18083 17.5555 4.82183 18.366 5.6315C19.1765 6.44117 19.8181 7.39333 20.2908 8.488C20.7636 9.5825 21 10.7521 21 11.9967C21 13.2413 20.7638 14.4113 20.2915 15.507C19.8192 16.6025 19.1782 17.5555 18.3685 18.366C17.5588 19.1765 16.6067 19.8181 15.512 20.2908C14.4175 20.7636 13.2479 21 12.0033 21ZM12 20C14.2333 20 16.125 19.225 17.675 17.675C19.225 16.125 20 14.2333 20 12C20 9.76667 19.225 7.875 17.675 6.325C16.125 4.775 14.2333 4 12 4C9.76667 4 7.875 4.775 6.325 6.325C4.775 7.875 4 9.76667 4 12C4 14.2333 4.775 16.125 6.325 17.675C7.875 19.225 9.76667 20 12 20Z" fill="#0E1328" fill-opacity="0.7"/>
</g>
</svg>
