<svg width="24" height="23" viewBox="0 0 24 23" fill="none" xmlns="http://www.w3.org/2000/svg">
<mask id="mask0_2293_11790" style="mask-type:alpha" maskUnits="userSpaceOnUse" x="0" y="0" width="24" height="23">
<rect x="0.5" width="23" height="23" fill="#D9D9D9"/>
</mask>
<g mask="url(#mask0_2293_11790)">
<path d="M11.9998 19.6457C11.796 19.6457 11.6254 19.5767 11.4879 19.4389C11.3502 19.3012 11.2813 19.1306 11.2813 18.9269V12.2186H4.573C4.36935 12.2186 4.19869 12.1497 4.06101 12.0118C3.92317 11.874 3.85425 11.7032 3.85425 11.4996C3.85425 11.2958 3.92317 11.1251 4.06101 10.9876C4.19869 10.8499 4.36935 10.7811 4.573 10.7811H11.2813V4.07275C11.2813 3.86911 11.3503 3.69844 11.4881 3.56076C11.6259 3.42292 11.7967 3.354 12.0003 3.354C12.2041 3.354 12.3748 3.42292 12.5123 3.56076C12.65 3.69844 12.7188 3.86911 12.7188 4.07275V10.7811H19.4272C19.6308 10.7811 19.8015 10.85 19.9392 10.9878C20.077 11.1257 20.1459 11.2964 20.1459 11.5001C20.1459 11.7039 20.077 11.8745 19.9392 12.0121C19.8015 12.1497 19.6308 12.2186 19.4272 12.2186H12.7188V18.9269C12.7188 19.1306 12.6499 19.3012 12.5121 19.4389C12.3742 19.5767 12.2035 19.6457 11.9998 19.6457Z" fill="#0E1328"/>
</g>
</svg>
