<svg width="24" height="25" viewBox="0 0 24 25" fill="none" xmlns="http://www.w3.org/2000/svg">
<mask id="mask0_2216_48022" style="mask-type:alpha" maskUnits="userSpaceOnUse" x="0" y="0" width="24" height="25">
<rect x="24" y="0.5" width="24" height="24" transform="rotate(90 24 0.5)" fill="#D9D9D9"/>
</mask>
<g mask="url(#mask0_2216_48022)">
<path d="M12.0002 15.3308L19.533 7.79802C19.7317 7.59935 19.9682 7.5026 20.2425 7.50776C20.5168 7.51293 20.7534 7.61485 20.9522 7.81352C21.1509 8.01218 21.2502 8.24868 21.2502 8.52302C21.2502 8.79735 21.1509 9.03393 20.9522 9.23276L13.281 16.8885C13.1002 17.0692 12.8976 17.2031 12.6732 17.2903C12.4489 17.3776 12.2246 17.4213 12.0002 17.4213C11.7759 17.4213 11.5516 17.3776 11.3272 17.2903C11.1029 17.2031 10.9003 17.0692 10.7195 16.8885L3.04824 9.21727C2.84958 9.0186 2.75283 8.78468 2.75799 8.51551C2.76316 8.24618 2.86508 8.01218 3.06374 7.81352C3.26241 7.61485 3.49891 7.51551 3.77324 7.51551C4.04758 7.51551 4.28416 7.61485 4.48299 7.81352L12.0002 15.3308Z" fill="black"/>
</g>
</svg>
