<svg width="24" height="24" viewBox="0 0 24 24" fill="none" xmlns="http://www.w3.org/2000/svg">
<mask id="mask0_2293_2589" style="mask-type:alpha" maskUnits="userSpaceOnUse" x="0" y="0" width="24" height="24">
<rect width="24" height="24" fill="#D9D9D9"/>
</mask>
<g mask="url(#mask0_2293_2589)">
<path d="M11.9995 13.0533L6.92652 18.1265C6.78802 18.2649 6.61394 18.3357 6.40427 18.339C6.19477 18.3422 6.01752 18.2714 5.87252 18.1265C5.72769 17.9815 5.65527 17.8059 5.65527 17.5995C5.65527 17.3932 5.72769 17.2175 5.87252 17.0725L10.9458 11.9995L5.87252 6.92652C5.73419 6.78802 5.66336 6.61394 5.66002 6.40427C5.65686 6.19477 5.72769 6.01752 5.87252 5.87252C6.01752 5.72769 6.19319 5.65527 6.39952 5.65527C6.60586 5.65527 6.78152 5.72769 6.92652 5.87252L11.9995 10.9458L17.0725 5.87252C17.211 5.73419 17.3851 5.66336 17.5948 5.66002C17.8043 5.65686 17.9815 5.72769 18.1265 5.87252C18.2714 6.01752 18.3438 6.19319 18.3438 6.39952C18.3438 6.60586 18.2714 6.78152 18.1265 6.92652L13.0533 11.9995L18.1265 17.0725C18.2649 17.211 18.3357 17.3851 18.339 17.5948C18.3422 17.8043 18.2714 17.9815 18.1265 18.1265C17.9815 18.2714 17.8059 18.3438 17.5995 18.3438C17.3932 18.3438 17.2175 18.2714 17.0725 18.1265L11.9995 13.0533Z" fill="#0E1328"/>
</g>
</svg>
