<svg width="224" height="44" viewBox="0 0 224 44" fill="none" xmlns="http://www.w3.org/2000/svg">
<path d="M33.5844 13.3611L63.898 3.8147e-06L32.0626 21.8169L18.6861 3.12151L33.5844 13.3611Z" fill="#F33F3F"/>
<path fill-rule="evenodd" clip-rule="evenodd" d="M39.4989 17.0547L52.8754 35.7501L37.9771 25.5106L7.66345 38.8759L39.4989 17.059M38.1621 24.4967L49.4956 32.4351L39.2761 18.3126L38.7338 21.3289L38.1663 24.4925L38.1621 24.4967Z" fill="white"/>
<path fill-rule="evenodd" clip-rule="evenodd" d="M23.1966 20.4834L18.4589 3.27719L31.8354 21.9726L0 43.7895L23.1966 20.4792V20.4834ZM30.6836 21.7749L20.4852 7.52194L24.1173 20.7189L6.72609 38.1943L30.6836 21.7749Z" fill="white"/>
<path d="M219.119 22.6837V22.1326L220.044 22.1241C220.187 22.1157 220.296 22.0947 220.368 22.0568C220.448 22.0106 220.507 21.9559 220.544 21.8928C220.616 21.7623 220.658 21.5352 220.671 21.207C220.679 21.1229 220.7 20.2016 220.738 18.4389V14.4382C220.738 13.3654 220.717 12.2548 220.679 11.1105C220.654 10.3407 220.616 9.90734 220.57 9.819C220.536 9.75589 220.486 9.70962 220.41 9.68438C220.309 9.6381 219.859 9.61707 219.048 9.61707V9.04914C220.532 8.86824 221.566 8.64528 222.142 8.37603C222.226 8.33817 222.293 8.31714 222.34 8.31714C222.386 8.31714 222.424 8.33397 222.449 8.36341C222.474 8.38866 222.487 8.42652 222.487 8.48121C222.487 8.52748 222.478 8.59059 222.466 8.67472L222.457 8.99445C222.424 10.1471 222.407 11.1273 222.398 11.9351L222.377 13.4411V18.4473C222.411 20.1175 222.428 21.0219 222.436 21.1566C222.44 21.4763 222.482 21.7119 222.554 21.8591C222.579 21.918 222.621 21.9685 222.672 22.0148C222.722 22.0526 222.802 22.0863 222.907 22.1115C222.953 22.1199 223.319 22.1283 224 22.141V22.6921C223.109 22.6416 222.323 22.6163 221.646 22.6163C220.969 22.6163 220.154 22.6416 219.103 22.6921L219.119 22.6837Z" fill="#F33F3F"/>
<path d="M217.652 21.186L217.337 21.8801C216.883 22.1578 216.551 22.3387 216.341 22.4312C216.03 22.5658 215.676 22.6794 215.277 22.7678C214.882 22.8645 214.466 22.9108 214.024 22.9108C213.158 22.9108 212.372 22.7341 211.67 22.3807C210.968 22.0274 210.417 21.5015 210.026 20.7989C209.64 20.0922 209.446 19.2676 209.446 18.3211C209.446 17.5807 209.547 16.916 209.753 16.327C209.963 15.7296 210.199 15.2879 210.464 15.0061C210.653 14.7999 210.951 14.5643 211.351 14.3035C211.75 14.0343 212.149 13.8197 212.545 13.6683C213.062 13.4579 213.625 13.3485 214.23 13.3485C214.966 13.3485 215.63 13.5126 216.219 13.8408C216.816 14.1689 217.253 14.6148 217.53 15.1827C217.808 15.7465 217.942 16.3901 217.942 17.1011C217.942 17.282 217.93 17.5007 217.904 17.7574C217.434 17.8457 217.009 17.9046 216.635 17.9298C215.924 17.9803 215.214 18.0056 214.508 18.0056H211.346C211.359 18.9269 211.519 19.6715 211.83 20.2436C212.145 20.8074 212.574 21.228 213.121 21.4973C213.671 21.7665 214.243 21.9011 214.836 21.9011C215.235 21.9011 215.634 21.838 216.03 21.716C216.429 21.5856 216.921 21.3542 217.509 21.0219L217.669 21.186H217.652ZM211.338 17.2441C211.523 17.2652 211.872 17.282 212.385 17.303C213.364 17.3367 214.037 17.3493 214.403 17.3493C215.277 17.3493 215.853 17.3325 216.126 17.303C216.135 17.1474 216.135 17.0296 216.135 16.9454C216.135 15.9316 215.924 15.1827 215.504 14.7074C215.084 14.232 214.52 13.9922 213.818 13.9922C213.074 13.9922 212.477 14.253 212.023 14.7747C211.569 15.2963 211.342 16.1167 211.334 17.2441H211.338Z" fill="#F33F3F"/>
<path d="M202.556 22.7804C202.3 22.1241 202.123 21.6824 202.023 21.4595L201.215 19.6168L199.198 15.0187C199.067 14.7284 198.954 14.5349 198.861 14.4382C198.769 14.3414 198.668 14.2825 198.554 14.2531C198.462 14.2278 198.218 14.2068 197.827 14.1942V13.6136C198.916 13.6599 199.71 13.6809 200.211 13.6809C200.761 13.6809 201.518 13.6599 202.477 13.6136V14.1942C201.766 14.2152 201.35 14.2573 201.224 14.3288C201.098 14.4003 201.035 14.4971 201.035 14.6191C201.035 14.8126 201.165 15.2248 201.43 15.8643L202.632 18.7965L202.918 19.4528C203.237 20.2184 203.46 20.7275 203.578 20.9841L204.562 18.7965C204.621 18.6661 204.919 17.9467 205.457 16.6257C205.772 15.8601 205.983 15.2753 206.088 14.8715C206.113 14.7621 206.125 14.6653 206.125 14.5812C206.125 14.4718 206.083 14.3961 205.999 14.3498C205.84 14.2657 205.419 14.2152 204.738 14.1942V13.6136C205.718 13.6599 206.344 13.6809 206.622 13.6809C206.853 13.6809 207.479 13.6599 208.505 13.6136V14.1942C208.097 14.2152 207.824 14.2615 207.685 14.3372C207.555 14.4087 207.424 14.5602 207.29 14.7915C207.197 14.9472 206.844 15.6413 206.226 16.8739L205.28 18.8512C205.117 19.2046 204.549 20.5129 203.574 22.7762H202.548L202.556 22.7804Z" fill="#F33F3F"/>
<path d="M189.583 16.0788L189.062 15.9442C189.071 15.797 189.071 15.595 189.071 15.3384C189.071 15.0692 189.071 14.8546 189.062 14.6905C189.895 14.1563 190.58 13.7987 191.114 13.6094C191.521 13.4748 191.975 13.4075 192.484 13.4075C193.232 13.4075 193.863 13.5463 194.376 13.8239C194.889 14.1016 195.267 14.497 195.519 15.0103C195.692 15.3721 195.776 15.8601 195.776 16.4869L195.738 18.2496V21.1229C195.738 21.43 195.763 21.6529 195.818 21.7876C195.856 21.8843 195.919 21.9558 196.007 21.9979C196.074 22.0358 196.209 22.061 196.419 22.0736L197.058 22.1325V22.6836C196.52 22.6374 196.045 22.6163 195.637 22.6163C195.229 22.6163 194.716 22.6374 194.061 22.6836L194.111 20.9883C192.77 21.9769 191.975 22.5364 191.727 22.6668C191.479 22.7888 191.164 22.8519 190.782 22.8519C189.987 22.8519 189.365 22.6458 188.919 22.2335C188.478 21.817 188.259 21.2617 188.259 20.576C188.259 20.1343 188.335 19.7262 188.486 19.3602C188.646 18.9942 188.831 18.7039 189.05 18.4936C189.268 18.2748 189.487 18.115 189.71 18.0098C190.092 17.8373 190.71 17.648 191.563 17.4503C192.425 17.2525 193.274 17.1011 194.115 17.0085C194.124 16.3985 194.048 15.9232 193.888 15.5824C193.728 15.2417 193.464 14.964 193.089 14.7452C192.715 14.5265 192.257 14.4171 191.719 14.4171C191.332 14.4171 190.992 14.4676 190.693 14.5728C190.403 14.6737 190.227 14.7621 190.159 14.8336L189.983 15.1828C189.806 15.5698 189.676 15.8727 189.588 16.0872L189.583 16.0788ZM194.103 17.5891C193.249 17.7321 192.518 17.8878 191.917 18.0603C191.311 18.2327 190.887 18.4136 190.634 18.5987C190.483 18.7081 190.353 18.8722 190.239 19.091C190.067 19.4107 189.983 19.7683 189.983 20.1595C189.983 20.6349 190.117 21.0093 190.386 21.2785C190.655 21.5436 191.03 21.674 191.509 21.674C191.95 21.674 192.383 21.552 192.808 21.308C193.241 21.0556 193.67 20.6854 194.098 20.1889V17.5849L194.103 17.5891Z" fill="#F33F3F"/>
<path d="M179.927 22.6837V22.1326C180.671 22.12 181.071 22.1074 181.13 22.0947C181.243 22.0737 181.323 22.0485 181.378 22.0064C181.436 21.9601 181.483 21.9012 181.516 21.8213C181.584 21.6741 181.621 21.4427 181.634 21.1272C181.672 19.4108 181.693 18.5147 181.693 18.4348V17.2863C181.693 16.773 181.684 16.2177 181.663 15.6288C181.651 15.2501 181.621 15.023 181.575 14.9557C181.537 14.8841 181.462 14.8337 181.348 14.8C181.243 14.7621 180.814 14.7453 180.066 14.7537V14.2026C181.394 14.0217 182.361 13.7861 182.971 13.5001C183.101 13.437 183.189 13.4033 183.236 13.4033C183.282 13.4033 183.32 13.4201 183.345 13.4496C183.37 13.4832 183.383 13.5295 183.383 13.5926C183.383 13.6389 183.383 13.6894 183.374 13.7483C183.341 14.1395 183.324 14.7495 183.316 15.5699C183.61 15.2375 183.883 14.9052 184.135 14.577C184.383 14.2489 184.564 14.0386 184.678 13.9418C184.875 13.7735 185.102 13.6431 185.359 13.5464C185.615 13.4454 185.88 13.3907 186.157 13.3907C186.435 13.3907 186.704 13.4496 186.977 13.5632L187.036 13.6978C186.939 14.5518 186.88 15.3048 186.868 15.9527H186.426C186.275 15.6456 186.098 15.4184 185.892 15.2796C185.695 15.1366 185.447 15.0692 185.144 15.0692C184.64 15.0692 184.207 15.2754 183.854 15.6877C183.5 16.0915 183.32 16.7015 183.32 17.5219V18.5147C183.32 18.9396 183.337 19.7136 183.37 20.8369C183.379 21.2365 183.391 21.489 183.421 21.5983C183.446 21.7077 183.479 21.7876 183.517 21.8381C183.564 21.8844 183.635 21.9223 183.736 21.9559C183.933 22.0148 184.463 22.0737 185.333 22.1284V22.6795C184.177 22.6332 183.194 22.6122 182.378 22.6122C181.563 22.6122 180.722 22.6332 179.936 22.6795L179.927 22.6837Z" fill="#F33F3F"/>
<path d="M170.036 12.1706H169.426C169.418 10.6351 169.388 9.57077 169.329 8.9776C170.044 9.00285 171.171 9.0365 172.701 9.07436C173.941 9.0996 174.769 9.11222 175.185 9.11222C175.631 9.11222 176.665 9.09119 178.288 9.05333C179.465 9.02809 180.322 9.00285 180.86 8.9776C180.781 9.69698 180.73 10.7613 180.701 12.1706H180.07L179.99 11.2451C179.94 10.6856 179.902 10.3659 179.881 10.2902C179.86 10.2144 179.831 10.1597 179.793 10.1261C179.759 10.0924 179.709 10.0672 179.633 10.0504C179.54 10.0293 179.213 10.0041 178.649 9.97464C178.086 9.94098 177.636 9.92836 177.308 9.92836H176.106C176.039 10.5468 176.009 11.3797 176.009 12.4273V18.0687C176.009 18.9437 176.018 19.7935 176.039 20.6223C176.06 21.2323 176.106 21.5983 176.177 21.7118C176.257 21.8296 176.379 21.9138 176.543 21.9727C176.716 22.0232 177.191 22.0568 177.972 22.0694V22.6878C176.795 22.6374 175.913 22.6121 175.324 22.6121C175.068 22.6121 174.042 22.6374 172.251 22.6878V22.0694C173.033 22.0568 173.508 22.0232 173.68 21.9727C173.853 21.9138 173.966 21.8381 174.025 21.7413C174.109 21.6109 174.164 21.2996 174.185 20.8074C174.185 20.6727 174.197 19.7599 174.223 18.0687V12.4483C174.223 12.179 174.214 11.8846 174.202 11.5606L174.143 9.93257H172.676C171.826 9.93257 171.154 9.96622 170.658 10.0293C170.498 10.0504 170.397 10.0924 170.351 10.1555C170.279 10.2649 170.212 10.6141 170.153 11.2073L170.044 12.1833L170.036 12.1706Z" fill="#F33F3F"/>
<path d="M156.34 22.6837V22.1326C157.084 22.12 157.483 22.1074 157.542 22.0947C157.655 22.0737 157.735 22.0485 157.79 22.0064C157.849 21.9601 157.895 21.9012 157.929 21.8213C157.996 21.6741 158.034 21.4427 158.046 21.1272C158.084 19.4108 158.105 18.5147 158.105 18.4348V17.2863C158.105 16.773 158.097 16.2177 158.076 15.6288C158.063 15.2501 158.034 15.023 157.988 14.9557C157.95 14.8841 157.874 14.8337 157.761 14.8C157.655 14.7621 157.227 14.7453 156.478 14.7537V14.2026C157.807 14.0217 158.774 13.7861 159.383 13.5001C159.514 13.437 159.602 13.4033 159.648 13.4033C159.694 13.4033 159.732 13.4201 159.757 13.4496C159.783 13.4832 159.795 13.5295 159.795 13.5926C159.795 13.6389 159.795 13.6894 159.787 13.7483C159.753 14.1395 159.736 14.7495 159.728 15.5699C160.022 15.2375 160.295 14.9052 160.548 14.577C160.796 14.2489 160.976 14.0386 161.09 13.9418C161.288 13.7735 161.515 13.6431 161.771 13.5464C162.027 13.4454 162.292 13.3907 162.57 13.3907C162.847 13.3907 163.116 13.4496 163.389 13.5632L163.448 13.6978C163.352 14.5518 163.293 15.3048 163.28 15.9527H162.839C162.687 15.6456 162.511 15.4184 162.305 15.2796C162.107 15.1366 161.859 15.0692 161.557 15.0692C161.052 15.0692 160.619 15.2754 160.266 15.6877C159.913 16.0915 159.732 16.7015 159.732 17.5219V18.5147C159.732 18.9396 159.749 19.7136 159.783 20.8369C159.791 21.2365 159.804 21.489 159.833 21.5983C159.858 21.7077 159.892 21.7876 159.93 21.8381C159.976 21.8844 160.047 21.9223 160.148 21.9559C160.346 22.0148 160.876 22.0737 161.746 22.1284V22.6795C160.59 22.6332 159.606 22.6122 158.79 22.6122C157.975 22.6122 157.134 22.6332 156.348 22.6795L156.34 22.6837Z" fill="white"/>
<path d="M155.352 22.1326V22.6837C154.49 22.6374 153.843 22.6164 153.401 22.6164C152.914 22.6164 152.422 22.6374 151.921 22.6837C151.959 22.162 151.989 21.5773 152.01 20.9294C151.615 21.2365 151.148 21.6572 150.601 22.1915C150.475 22.3135 150.353 22.4018 150.236 22.4607C149.954 22.6164 149.672 22.7257 149.387 22.7888C149.105 22.8604 148.764 22.894 148.373 22.894C147.84 22.894 147.394 22.8225 147.032 22.6837C146.679 22.5406 146.372 22.3261 146.116 22.0358C145.927 21.8255 145.78 21.552 145.675 21.2155C145.578 20.8747 145.527 20.4666 145.527 19.9913C145.527 19.7683 145.536 19.5537 145.548 19.356C145.569 19.1583 145.578 18.9606 145.578 18.7671V17.118C145.578 16.9497 145.569 16.529 145.548 15.8559C145.536 15.431 145.506 15.1533 145.46 15.0271C145.435 14.964 145.393 14.9093 145.334 14.8715C145.237 14.8084 145.061 14.7747 144.813 14.7747C144.451 14.7747 144.165 14.7747 143.955 14.7663V14.2152C145.368 14.0596 146.393 13.8113 147.028 13.4706C147.133 13.4117 147.217 13.3822 147.276 13.3822C147.322 13.3822 147.36 13.3991 147.386 13.4285C147.419 13.4622 147.436 13.5085 147.436 13.5716C147.436 13.622 147.436 13.6893 147.428 13.7651C147.402 13.9712 147.377 14.3667 147.36 14.9514C147.322 16.0242 147.301 16.7435 147.301 17.1095V18.99C147.301 19.7725 147.352 20.3278 147.461 20.6475C147.575 20.9631 147.785 21.2155 148.092 21.409C148.407 21.5941 148.794 21.6866 149.256 21.6866C149.571 21.6866 149.883 21.6362 150.194 21.531C150.509 21.4216 150.791 21.2659 151.043 21.0682C151.228 20.921 151.413 20.7191 151.606 20.4708C151.749 20.2857 151.846 20.1427 151.892 20.046C151.938 19.945 151.968 19.7935 151.98 19.6042C152.014 19.0405 152.031 18.4768 152.031 17.9173V17.1053C152.031 16.9371 152.022 16.5164 152.001 15.8433C151.989 15.4184 151.959 15.1407 151.913 15.0145C151.888 14.9514 151.846 14.8967 151.787 14.8589C151.69 14.7958 151.514 14.7621 151.266 14.7621C150.904 14.7621 150.618 14.7621 150.408 14.7537V14.2026C151.821 14.0469 152.846 13.7987 153.481 13.458C153.586 13.3991 153.67 13.3696 153.729 13.3696C153.775 13.3696 153.813 13.3865 153.838 13.4159C153.872 13.4496 153.889 13.4958 153.889 13.5589C153.889 13.6094 153.889 13.6767 153.88 13.7525C153.859 13.9586 153.838 14.3667 153.813 14.9767C153.775 16.0242 153.754 16.7309 153.754 17.0969V18.4179L153.775 19.7599C153.796 20.5382 153.809 20.9925 153.813 21.1313C153.822 21.4511 153.855 21.6866 153.922 21.8339C153.956 21.8928 153.998 21.9433 154.049 21.9895C154.099 22.0274 154.179 22.061 154.284 22.0863C154.322 22.0947 154.688 22.1031 155.377 22.1157L155.352 22.1326Z" fill="white"/>
<path d="M133.353 18.2454C133.353 16.8066 133.82 15.6329 134.753 14.7242C135.691 13.8113 136.893 13.3528 138.36 13.3528C139.739 13.3528 140.861 13.7777 141.732 14.6274C142.598 15.4772 143.031 16.571 143.031 17.9172C143.031 18.8554 142.808 19.7136 142.362 20.4918C141.917 21.2701 141.286 21.8801 140.471 22.326C139.655 22.7636 138.76 22.9823 137.78 22.9823C137.019 22.9823 136.372 22.8561 135.838 22.6079C135.312 22.3555 134.884 22.0442 134.556 21.6614C134.228 21.2827 133.976 20.8915 133.807 20.4961C133.505 19.7935 133.353 19.0447 133.353 18.2496V18.2454ZM135.216 17.5344C135.216 18.3253 135.35 19.1288 135.619 19.945C135.888 20.7611 136.275 21.3585 136.784 21.7371C137.297 22.1115 137.852 22.2966 138.448 22.2966C139.209 22.2966 139.848 22.0021 140.361 21.4089C140.874 20.8158 141.131 19.9071 141.131 18.6787C141.131 17.6564 140.975 16.7772 140.668 16.0368C140.365 15.2921 139.979 14.7663 139.504 14.4634C139.033 14.1563 138.507 14.0006 137.936 14.0006C137.128 14.0006 136.473 14.2867 135.964 14.8588C135.464 15.431 135.216 16.3228 135.216 17.5302V17.5344Z" fill="white"/>
<path d="M121.301 9.8274V9.23843L123.676 8.78409C123.937 8.87244 124.117 8.96078 124.218 9.04492C124.315 9.12064 124.525 9.36464 124.84 9.77692C125.307 10.3869 125.845 11.2199 126.455 12.2758C127.064 13.3317 127.716 14.5349 128.405 15.8937C129.103 14.8462 129.814 13.7061 130.545 12.4819L132.643 8.98182H134.152V9.24264C133.79 9.63388 133.126 10.4879 132.163 11.7962C131.604 12.5535 130.881 13.6557 129.986 15.1028C129.427 15.9947 129.111 16.5458 129.04 16.7519C128.969 16.9497 128.931 17.139 128.931 17.3199V18.0645C128.931 18.9395 128.939 19.7893 128.96 20.6181C128.981 21.2281 129.027 21.5941 129.099 21.7076C129.179 21.8254 129.301 21.9096 129.465 21.9685C129.637 22.019 130.112 22.0526 130.894 22.0652V22.6836C129.822 22.6332 128.897 22.6079 128.115 22.6079C127.333 22.6079 126.379 22.6332 125.152 22.6836V22.0652C125.925 22.0526 126.4 22.019 126.572 21.9685C126.745 21.9096 126.858 21.8338 126.917 21.7371C127.001 21.6067 127.056 21.2954 127.077 20.8032C127.085 20.6685 127.098 19.7557 127.115 18.0645V16.937C126.976 16.6468 126.841 16.3859 126.711 16.1546C126.619 15.9947 126.282 15.4394 125.706 14.497L125.055 13.4537C124.542 12.6292 124.164 12.0444 123.911 11.6995C123.432 11.0306 123.033 10.551 122.717 10.2607C122.545 10.1008 122.364 9.98726 122.175 9.92416C121.99 9.86105 121.704 9.8274 121.309 9.8274H121.301Z" fill="white"/>
<path d="M115.42 21.186L115.105 21.8801C114.651 22.1578 114.318 22.3387 114.108 22.4312C113.801 22.5658 113.444 22.6794 113.045 22.7678C112.65 22.8645 112.233 22.9108 111.792 22.9108C110.926 22.9108 110.14 22.7341 109.438 22.3807C108.736 22.0274 108.185 21.5015 107.794 20.7989C107.407 20.0922 107.214 19.2676 107.214 18.3211C107.214 17.5807 107.315 16.916 107.521 16.327C107.731 15.7296 107.967 15.2879 108.231 15.0061C108.421 14.7999 108.719 14.5643 109.118 14.3035C109.518 14.0343 109.917 13.8197 110.312 13.6683C110.829 13.4579 111.393 13.3485 111.998 13.3485C112.734 13.3485 113.398 13.5126 113.986 13.8408C114.583 14.1689 115.021 14.6148 115.298 15.1827C115.575 15.7465 115.71 16.3901 115.71 17.1011C115.71 17.282 115.697 17.5007 115.672 17.7574C115.201 17.8457 114.777 17.9046 114.403 17.9298C113.692 17.9803 112.982 18.0056 112.275 18.0056H109.114C109.127 18.9269 109.287 19.6715 109.598 20.2436C109.913 20.8074 110.342 21.228 110.888 21.4973C111.439 21.7665 112.011 21.9011 112.603 21.9011C113.003 21.9011 113.402 21.838 113.797 21.716C114.197 21.5856 114.688 21.3542 115.277 21.0219L115.437 21.186H115.42ZM109.106 17.2441C109.291 17.2652 109.64 17.282 110.148 17.303C111.128 17.3367 111.8 17.3493 112.166 17.3493C113.041 17.3493 113.616 17.3325 113.89 17.303C113.898 17.1474 113.898 17.0296 113.898 16.9454C113.898 15.9316 113.688 15.1827 113.268 14.7074C112.847 14.232 112.284 13.9922 111.582 13.9922C110.838 13.9922 110.241 14.253 109.787 14.7747C109.333 15.2963 109.106 16.1167 109.097 17.2441H109.106Z" fill="white"/>
<path d="M100.584 15.1239V14.72C101.24 14.476 101.761 14.2573 102.152 14.0638C102.152 12.5325 102.131 11.5565 102.094 11.1316C102.775 10.9002 103.334 10.652 103.758 10.3869L103.994 10.5805C103.922 11.1147 103.842 12.2885 103.758 14.11C104.284 14.1185 104.599 14.1185 104.704 14.1185C104.763 14.1185 105.103 14.11 105.717 14.0974C106.058 14.089 106.314 14.0764 106.487 14.0596L106.554 14.1269L106.348 15.0229C105.936 15.0145 105.553 15.0145 105.204 15.0145C104.855 15.0145 104.372 15.0145 103.754 15.0229L103.695 18.948C103.674 19.9071 103.683 20.4793 103.716 20.6644C103.75 20.8495 103.813 21.0135 103.905 21.1566C103.998 21.2912 104.116 21.4006 104.259 21.4847C104.41 21.5688 104.662 21.6319 105.015 21.6782C105.284 21.6782 105.503 21.6698 105.667 21.6488C105.839 21.6235 106.049 21.5646 106.306 21.4763L106.423 21.8507C106.117 22.0905 105.814 22.3345 105.528 22.5953C105.28 22.6837 105.045 22.7426 104.83 22.7678C104.612 22.8015 104.364 22.8141 104.082 22.8141C103.733 22.8141 103.456 22.7762 103.245 22.6963C103.044 22.6206 102.854 22.5112 102.682 22.3766C102.51 22.2335 102.371 22.0568 102.258 21.8465C102.144 21.6362 102.073 21.2996 102.039 20.8453C102.047 20.4077 102.06 19.9282 102.077 19.4065C102.085 19.3055 102.085 19.192 102.085 19.07V15.0692H101.682C101.354 15.0692 100.984 15.086 100.58 15.1155L100.584 15.1239Z" fill="white"/>
<path d="M99.6092 22.1326V22.6837C98.7474 22.6374 98.1001 22.6164 97.6587 22.6164C97.171 22.6164 96.6792 22.6374 96.1789 22.6837C96.2167 22.162 96.2462 21.5773 96.2672 20.9294C95.872 21.2365 95.4054 21.6572 94.8589 22.1915C94.7328 22.3135 94.6109 22.4018 94.4932 22.4607C94.2115 22.6164 93.9299 22.7257 93.644 22.7888C93.3624 22.8604 93.0219 22.894 92.6309 22.894C92.097 22.894 91.6514 22.8225 91.2899 22.6837C90.9368 22.5406 90.6299 22.3261 90.3735 22.0358C90.1843 21.8255 90.0329 21.552 89.9279 21.2155C89.8312 20.8747 89.7807 20.4666 89.7807 19.9913C89.7807 19.7683 89.7891 19.5537 89.8017 19.356C89.8228 19.1583 89.8312 18.9606 89.8312 18.7671V17.118C89.8312 16.9497 89.8228 16.529 89.8017 15.8559C89.7891 15.431 89.7597 15.1533 89.7135 15.0271C89.6882 14.964 89.6462 14.9093 89.5873 14.8715C89.4907 14.8084 89.3141 14.7747 89.0661 14.7747C88.7045 14.7747 88.4187 14.7747 88.2085 14.7663V14.2152C89.621 14.0596 90.6467 13.8113 91.2815 13.4706C91.3866 13.4117 91.4706 13.3822 91.5295 13.3822C91.5757 13.3822 91.6136 13.3991 91.6388 13.4285C91.6724 13.4622 91.6892 13.5085 91.6892 13.5716C91.6892 13.622 91.6892 13.6893 91.6808 13.7651C91.6556 13.9712 91.6304 14.3667 91.6136 14.9514C91.5757 16.0242 91.5547 16.7435 91.5547 17.1095V18.99C91.5547 19.7725 91.6052 20.3278 91.7145 20.6475C91.828 20.9631 92.0382 21.2155 92.345 21.409C92.6603 21.5941 93.0471 21.6866 93.5095 21.6866C93.8248 21.6866 94.1359 21.6362 94.4469 21.531C94.7622 21.4216 95.0439 21.2659 95.2961 21.0682C95.4811 20.921 95.6661 20.7191 95.8594 20.4708C96.0024 20.2857 96.099 20.1427 96.1453 20.046C96.1915 19.945 96.221 19.7935 96.2336 19.6042C96.2672 19.0405 96.284 18.4768 96.284 17.9173V17.1053C96.284 16.9371 96.2756 16.5164 96.2546 15.8433C96.242 15.4184 96.2125 15.1407 96.1663 15.0145C96.1411 14.9514 96.099 14.8967 96.0402 14.8589C95.9435 14.7958 95.7669 14.7621 95.5189 14.7621C95.1574 14.7621 94.8715 14.7621 94.6613 14.7537V14.2026C96.0738 14.0469 97.0995 13.7987 97.7343 13.458C97.8394 13.3991 97.9235 13.3696 97.9824 13.3696C98.0286 13.3696 98.0664 13.3865 98.0916 13.4159C98.1253 13.4496 98.1421 13.4958 98.1421 13.5589C98.1421 13.6094 98.1421 13.6767 98.1337 13.7525C98.1127 13.9586 98.0917 14.3667 98.0664 14.9767C98.0286 16.0242 98.0076 16.7309 98.0076 17.0969V18.4179L98.0286 19.7599C98.0496 20.5382 98.0622 20.9925 98.0664 21.1313C98.0748 21.4511 98.1085 21.6866 98.1757 21.8339C98.2094 21.8928 98.2514 21.9433 98.3018 21.9895C98.3523 22.0274 98.4322 22.061 98.5373 22.0863C98.5751 22.0947 98.9408 22.1031 99.6302 22.1157L99.6092 22.1326Z" fill="white"/>
<path d="M77.6065 18.2454C77.6065 16.8066 78.0732 15.6329 79.0064 14.7242C79.9481 13.8113 81.1461 13.3528 82.6133 13.3528C83.9921 13.3528 85.1145 13.7777 85.9847 14.6274C86.8507 15.4772 87.2837 16.571 87.2837 17.9172C87.2837 18.8554 87.0609 19.7136 86.6153 20.4918C86.1697 21.2701 85.5391 21.8801 84.7236 22.326C83.908 22.7636 83.0126 22.9823 82.0331 22.9823C81.2723 22.9823 80.6249 22.8561 80.091 22.6079C79.5655 22.3555 79.1409 22.0442 78.8088 21.6614C78.4809 21.2827 78.2287 20.8915 78.0605 20.4961C77.7579 19.7935 77.6065 19.0447 77.6065 18.2496V18.2454ZM79.4688 17.5344C79.4688 18.3253 79.6033 19.1288 79.8724 19.945C80.1414 20.7611 80.5282 21.3585 81.0326 21.7371C81.5455 22.1115 82.1004 22.2966 82.6974 22.2966C83.4582 22.2966 84.0972 22.0021 84.6101 21.4089C85.1229 20.8158 85.3794 19.9071 85.3794 18.6787C85.3794 17.6564 85.2238 16.7772 84.917 16.0368C84.6143 15.2921 84.2275 14.7663 83.7525 14.4634C83.2817 14.1563 82.7562 14.0006 82.1845 14.0006C81.3774 14.0006 80.7174 14.2867 80.2129 14.8588C79.7126 15.431 79.4646 16.3228 79.4646 17.5302L79.4688 17.5344Z" fill="white"/>
<path d="M63.9021 9.59603V8.97762C64.1585 8.98603 64.5494 8.99444 65.0749 9.00706L66.9666 9.05334C67.3408 9.05334 67.9209 9.04072 68.7112 9.01548C69.7369 8.97762 70.3297 8.95658 70.4936 8.95658C71.7506 8.95658 72.6628 9.06596 73.2345 9.28472C73.8146 9.50348 74.2602 9.86106 74.5755 10.3533C74.8908 10.8413 75.0464 11.3755 75.0464 11.9561C75.0464 12.4946 74.8992 13.0331 74.605 13.5673C74.3107 14.1016 73.8777 14.5433 73.3144 14.8967C72.7553 15.2501 72.028 15.5235 71.1284 15.717C71.2924 15.94 71.6791 16.4448 72.2929 17.2231L74.7773 20.4246C75.4878 21.3164 75.8997 21.817 76.0174 21.918C76.0763 21.9643 76.1351 21.9937 76.194 22.0148C76.2949 22.0484 76.5093 22.061 76.8456 22.061V22.6794C76.3453 22.6416 75.9081 22.6205 75.534 22.6205C75.1599 22.6205 74.6722 22.6416 74.1047 22.6794C73.6801 22.1957 72.9613 21.2533 71.9566 19.8524C71.3975 19.0741 70.9056 18.4263 70.4768 17.9046C69.7874 17.0422 69.1316 16.2639 68.5052 15.5614L68.6019 15.2711C68.9424 15.2922 69.2031 15.3006 69.3796 15.3006C70.5735 15.3006 71.4815 15.0229 72.0995 14.4718C72.7174 13.9207 73.0243 13.1887 73.0243 12.2842C73.0243 11.4933 72.7595 10.8665 72.2256 10.4037C71.6959 9.93258 70.8888 9.7012 69.8126 9.7012C69.1358 9.7012 68.4716 9.80216 67.8242 9.99989C67.799 10.3491 67.778 10.673 67.7654 10.9759C67.757 11.0642 67.7359 12.0024 67.6981 13.7819V18.0645C67.6981 18.9395 67.7107 19.7893 67.7359 20.6181C67.7485 21.2281 67.7906 21.5941 67.862 21.7077C67.9419 21.8254 68.068 21.9096 68.2362 21.9685C68.4085 22.019 68.8794 22.0526 69.6571 22.0652V22.6836C68.7238 22.6332 67.8663 22.6079 67.0843 22.6079C66.4538 22.6079 65.3944 22.6332 63.9021 22.6836V22.0652C64.6756 22.0526 65.1506 22.019 65.3229 21.9685C65.4953 21.9096 65.613 21.8339 65.6761 21.7371C65.7559 21.6067 65.8064 21.2954 65.8232 20.8032C65.8316 20.6686 65.8442 19.7557 65.861 18.0645V13.601C65.861 12.726 65.8526 11.872 65.8316 11.0348C65.8106 10.4248 65.7643 10.063 65.6845 9.95361C65.613 9.83582 65.4911 9.75589 65.3187 9.7012C65.1548 9.6423 64.6798 9.60865 63.8979 9.59603H63.9021Z" fill="white"/>
<path d="M152.88 34.2274V34.0717C153.006 34.0002 153.111 33.9371 153.199 33.8782C153.212 33.731 153.225 33.529 153.233 33.2724C153.25 32.8307 153.254 32.5236 153.254 32.3553V31.0428C153.254 30.8324 153.246 30.5842 153.233 30.3023C153.225 30.1257 153.208 30.0121 153.187 29.97C153.17 29.9406 153.149 29.9237 153.12 29.9111C153.048 29.8817 152.897 29.8648 152.67 29.8606V29.6587C152.989 29.6713 153.271 29.6797 153.519 29.6797C153.708 29.6797 153.965 29.6797 154.288 29.6671C154.616 29.6587 154.868 29.6545 155.045 29.6545C155.583 29.6545 156.012 29.7218 156.34 29.8564C156.668 29.991 156.941 30.214 157.172 30.5295C157.399 30.845 157.513 31.2279 157.513 31.6822C157.513 32.0061 157.458 32.3132 157.353 32.5993C157.243 32.8854 157.101 33.1336 156.916 33.3481C156.731 33.5585 156.533 33.7268 156.323 33.853C156.113 33.9792 155.89 34.0717 155.659 34.1348C155.427 34.1979 155.112 34.2274 154.709 34.2274C154.574 34.2274 154.393 34.2232 154.166 34.2148C153.868 34.2063 153.674 34.2021 153.582 34.2021C153.447 34.2021 153.212 34.2105 152.88 34.2274ZM153.901 33.874C154.141 33.9161 154.398 33.9371 154.662 33.9371C154.927 33.9371 155.179 33.9119 155.39 33.8656C155.604 33.8193 155.781 33.752 155.932 33.6679C156.083 33.5837 156.23 33.4575 156.369 33.2892C156.508 33.121 156.617 32.9106 156.693 32.6498C156.768 32.389 156.806 32.1197 156.806 31.8379C156.806 31.4382 156.735 31.0974 156.588 30.8114C156.445 30.5253 156.226 30.3066 155.932 30.1509C155.638 29.9995 155.234 29.9237 154.721 29.9237C154.452 29.9237 154.179 29.9448 153.901 29.9826C153.893 30.0878 153.889 30.2729 153.885 30.5421L153.872 31.0091V32.2922L153.88 33.2892C153.88 33.4407 153.889 33.6384 153.901 33.874Z" fill="white"/>
<path d="M147.36 34.2275V34.0255C147.591 34.0255 147.743 34.0045 147.814 33.9751C147.843 33.9624 147.864 33.9414 147.881 33.912C147.902 33.8699 147.919 33.7563 147.928 33.5754C147.94 33.2935 147.949 33.0495 147.949 32.8434V31.1985C147.949 30.9082 147.949 30.6222 147.94 30.3445C147.932 30.1426 147.919 30.0206 147.89 29.9827C147.864 29.9449 147.827 29.9154 147.768 29.8986C147.713 29.8776 147.553 29.8691 147.297 29.8649V29.6588L148.234 29.6798L149.227 29.663C149.702 29.6546 150.046 29.6546 150.261 29.6546C150.475 29.6546 150.681 29.6672 150.874 29.6882C150.841 29.8102 150.816 29.9154 150.803 30.008C150.799 30.029 150.778 30.252 150.744 30.6769H150.538C150.538 30.4581 150.525 30.2604 150.496 30.0795C150.374 30.029 150.244 29.9953 150.097 29.9785C149.853 29.9491 149.605 29.9322 149.361 29.9322C149.311 29.9322 149.193 29.9364 149.008 29.9449C148.827 29.9533 148.697 29.9617 148.617 29.9659C148.609 30.2057 148.6 30.4287 148.596 30.6348L148.583 31.7202C148.84 31.7328 149.075 31.7412 149.29 31.7412C149.55 31.7412 149.773 31.7286 149.958 31.7075C150.029 31.6991 150.071 31.6823 150.092 31.6571C150.114 31.6318 150.13 31.5435 150.143 31.392L150.164 31.1691H150.362V31.2322L150.345 31.9011L150.362 32.6499H150.13L150.122 32.4311C150.122 32.2713 150.101 32.1745 150.076 32.1366C150.05 32.0988 150.004 32.0693 149.933 32.0567C149.807 32.0315 149.567 32.0189 149.205 32.0189C149.058 32.0189 148.852 32.0231 148.583 32.0357C148.571 32.2502 148.567 32.57 148.567 32.9906C148.567 33.3861 148.571 33.689 148.583 33.8951C148.899 33.9204 149.252 33.9288 149.643 33.9288C149.92 33.9288 150.118 33.9204 150.235 33.9035C150.353 33.8867 150.462 33.8573 150.563 33.8152C150.589 33.7479 150.614 33.6595 150.643 33.546C150.694 33.3566 150.723 33.2094 150.74 33.1169H150.958C150.9 33.5502 150.874 33.9077 150.874 34.1938C150.685 34.2233 150.458 34.2359 150.189 34.2359L148.23 34.2106C148.201 34.2106 147.915 34.2191 147.368 34.2359L147.36 34.2275Z" fill="white"/>
<path d="M145.607 34.0213V34.2275C145.14 34.2107 144.833 34.2022 144.686 34.2022L143.673 34.2275V34.0213C143.93 34.0171 144.089 34.0045 144.144 33.9877C144.203 33.9667 144.241 33.9414 144.262 33.912C144.287 33.8699 144.304 33.7647 144.312 33.6007C144.312 33.5544 144.321 33.2515 144.325 32.6878V31.1985C144.325 30.9083 144.325 30.6222 144.316 30.3445C144.308 30.1426 144.295 30.0206 144.266 29.9827C144.241 29.9449 144.203 29.9154 144.144 29.8986C144.089 29.8776 143.93 29.8691 143.673 29.8649V29.6588C144.089 29.6756 144.413 29.6798 144.64 29.6798C144.867 29.6798 145.182 29.6714 145.607 29.6588V29.8649C145.346 29.8691 145.187 29.8818 145.132 29.8986C145.077 29.9154 145.039 29.9407 145.018 29.9743C144.993 30.0164 144.976 30.1216 144.968 30.2856C144.968 30.3277 144.96 30.6306 144.955 31.1985V32.6878C144.955 32.978 144.955 33.2641 144.964 33.5376C144.972 33.7395 144.985 33.8615 145.01 33.8993C145.035 33.9372 145.077 33.9667 145.132 33.9877C145.191 34.0045 145.346 34.0171 145.607 34.0213Z" fill="white"/>
<path d="M138.574 29.8649V29.6588C138.906 29.6714 139.188 29.6798 139.419 29.6798C139.583 29.6798 139.877 29.6798 140.302 29.6672C140.726 29.6588 141.012 29.6546 141.164 29.6546C141.323 29.6546 141.471 29.6546 141.601 29.6588C141.735 29.6588 141.853 29.6672 141.962 29.6756C141.908 29.8565 141.874 30.1804 141.857 30.6516H141.651C141.63 30.3908 141.605 30.1931 141.571 30.0542C141.458 30.0164 141.315 29.9869 141.147 29.9701C140.979 29.9491 140.785 29.9407 140.567 29.9407C140.348 29.9407 140.117 29.9533 139.882 29.9785C139.869 30.0921 139.86 30.2015 139.856 30.3024C139.856 30.3613 139.848 30.6053 139.839 31.0387V31.7538C140.083 31.7622 140.302 31.7622 140.491 31.7622C140.769 31.7622 140.991 31.7496 141.159 31.7202C141.223 31.7075 141.265 31.6907 141.281 31.6697C141.302 31.6444 141.323 31.5519 141.344 31.3962L141.37 31.1985H141.576L141.55 31.9305L141.576 32.7172H141.37L141.349 32.5111C141.323 32.2755 141.307 32.1535 141.298 32.1367C141.281 32.1072 141.239 32.082 141.172 32.0693C141.046 32.0399 140.764 32.0273 140.323 32.0273C140.167 32.0273 140.008 32.0315 139.844 32.0399V32.6878C139.844 32.978 139.844 33.2641 139.856 33.5375C139.86 33.7395 139.873 33.8615 139.898 33.8993C139.924 33.9372 139.966 33.9666 140.024 33.9877C140.083 34.0045 140.239 34.0171 140.495 34.0213V34.2275C140.218 34.2106 139.94 34.2022 139.663 34.2022C139.415 34.2022 139.053 34.2106 138.578 34.2275V34.0213C138.835 34.0171 138.995 34.0045 139.049 33.9877C139.104 33.9666 139.146 33.9414 139.167 33.912C139.192 33.8699 139.209 33.7647 139.217 33.6006C139.217 33.5544 139.226 33.2515 139.23 32.6878V31.1985C139.23 30.9082 139.23 30.6222 139.222 30.3445C139.213 30.1426 139.2 30.0206 139.171 29.9827C139.146 29.9449 139.108 29.9154 139.049 29.8986C138.995 29.8776 138.835 29.8691 138.578 29.8649H138.574Z" fill="white"/>
<path d="M136.905 34.0213V34.2275C136.439 34.2107 136.132 34.2022 135.985 34.2022L134.972 34.2275V34.0213C135.228 34.0171 135.388 34.0045 135.442 33.9877C135.501 33.9667 135.539 33.9414 135.56 33.912C135.585 33.8699 135.602 33.7647 135.611 33.6007C135.611 33.5544 135.619 33.2515 135.623 32.6878V31.1985C135.623 30.9083 135.623 30.6222 135.615 30.3445C135.606 30.1426 135.594 30.0206 135.564 29.9827C135.539 29.9449 135.501 29.9154 135.442 29.8986C135.388 29.8776 135.228 29.8691 134.972 29.8649V29.6588C135.388 29.6756 135.711 29.6798 135.938 29.6798C136.165 29.6798 136.481 29.6714 136.905 29.6588V29.8649C136.645 29.8691 136.485 29.8818 136.43 29.8986C136.376 29.9154 136.338 29.9407 136.317 29.9743C136.292 30.0164 136.275 30.1216 136.266 30.2856C136.266 30.3277 136.258 30.6306 136.254 31.1985V32.6878C136.254 32.978 136.254 33.2641 136.262 33.5376C136.271 33.7395 136.283 33.8615 136.308 33.8993C136.334 33.9372 136.376 33.9667 136.43 33.9877C136.489 34.0045 136.645 34.0171 136.905 34.0213Z" fill="white"/>
<path d="M129.776 34.2275V34.0592C129.91 33.9961 129.998 33.9498 130.036 33.912C130.057 33.8909 130.074 33.8699 130.083 33.8362C130.104 33.7773 130.116 33.6469 130.12 33.4492C130.129 33.1547 130.133 32.9822 130.133 32.9233V31.1943C130.133 30.904 130.133 30.618 130.125 30.3403C130.116 30.1384 130.104 30.0164 130.074 29.9785C130.049 29.9407 130.011 29.9112 129.952 29.8944C129.898 29.8733 129.738 29.8649 129.481 29.8607V29.6546C130.015 29.6714 130.347 29.6798 130.473 29.6798C130.612 29.6798 130.927 29.6714 131.415 29.6546V29.8607C131.155 29.8649 130.995 29.8776 130.94 29.8944C130.885 29.9112 130.848 29.9364 130.827 29.9701C130.801 30.0122 130.785 30.1173 130.776 30.2814C130.776 30.3235 130.768 30.6264 130.764 31.1943V33.3524C130.764 33.5754 130.768 33.7605 130.776 33.9035C131.024 33.9204 131.272 33.9246 131.52 33.9246C132.138 33.9246 132.571 33.8867 132.819 33.811C132.849 33.7479 132.874 33.6722 132.895 33.588L133.025 33.0538H133.244C133.198 33.3735 133.147 33.7479 133.101 34.177C133.013 34.1938 132.941 34.2064 132.886 34.2106C132.773 34.2191 132.596 34.2191 132.361 34.2191L130.419 34.1938C130.209 34.1938 129.994 34.2022 129.78 34.2191L129.776 34.2275Z" fill="white"/>
<path d="M124.126 29.8649V29.6588C124.567 29.6714 124.916 29.6798 125.168 29.6798C125.34 29.6798 125.521 29.6798 125.715 29.6714L126.232 29.6546C126.29 29.6546 126.341 29.6546 126.391 29.6546C126.74 29.6546 127.014 29.6925 127.211 29.7682C127.409 29.8439 127.564 29.9617 127.678 30.13C127.791 30.294 127.846 30.4791 127.846 30.6895C127.846 30.8788 127.8 31.0639 127.703 31.2532C127.61 31.4383 127.476 31.5982 127.299 31.7286C127.123 31.859 126.938 31.9473 126.744 32.0062C126.614 32.0441 126.463 32.0651 126.299 32.0651C126.16 32.0651 126.009 32.0483 125.845 32.0189L125.778 31.7791C125.971 31.8211 126.127 31.8422 126.236 31.8422C126.4 31.8422 126.555 31.8043 126.702 31.7286C126.85 31.6487 126.967 31.5309 127.047 31.3752C127.131 31.2153 127.173 31.0429 127.173 30.8493C127.173 30.6558 127.131 30.5002 127.051 30.3529C126.971 30.2015 126.85 30.0879 126.686 30.0122C126.522 29.9365 126.328 29.8986 126.093 29.8986C125.887 29.8986 125.66 29.9364 125.424 30.008C125.403 30.2351 125.395 30.5927 125.395 31.0765V32.6962C125.395 32.9864 125.395 33.2725 125.403 33.546C125.412 33.7479 125.424 33.8699 125.45 33.9077C125.475 33.9456 125.517 33.9751 125.572 33.9961C125.63 34.0129 125.786 34.0255 126.047 34.0297V34.2359C125.643 34.2191 125.345 34.2106 125.155 34.2106C125.08 34.2106 124.739 34.2191 124.126 34.2359V34.0297C124.382 34.0255 124.542 34.0129 124.596 33.9961C124.655 33.9751 124.693 33.9498 124.714 33.9204C124.739 33.8783 124.756 33.7731 124.764 33.6091C124.764 33.5628 124.769 33.2599 124.777 32.6962V31.2069C124.777 30.9167 124.777 30.6306 124.769 30.3529C124.76 30.151 124.748 30.029 124.718 29.9911C124.693 29.9533 124.655 29.9238 124.596 29.907C124.542 29.886 124.382 29.8776 124.126 29.8733V29.8649Z" fill="white"/>
<path d="M116.361 29.8649V29.6588C116.593 29.6672 116.811 29.6714 117.021 29.6714C117.232 29.6714 117.437 29.6714 117.631 29.6588C117.824 30.0879 118.001 30.4623 118.161 30.7863L119.405 33.2936L120.527 30.9966C120.834 30.3698 121.04 29.9238 121.141 29.6588C121.372 29.6672 121.57 29.6714 121.73 29.6714C121.877 29.6714 122.112 29.6714 122.444 29.6588V29.8649C122.184 29.8691 122.024 29.8818 121.969 29.8986C121.915 29.9154 121.877 29.9407 121.856 29.9743C121.826 30.0164 121.809 30.1216 121.805 30.2856C121.805 30.3277 121.797 30.6306 121.788 31.1985V32.6878C121.788 32.978 121.793 33.2641 121.801 33.5376C121.809 33.7395 121.822 33.8615 121.847 33.8993C121.873 33.9372 121.915 33.9667 121.969 33.9877C122.028 34.0045 122.184 34.0171 122.444 34.0213V34.2275C122.003 34.2064 121.692 34.198 121.507 34.198C121.36 34.198 121.036 34.2064 120.536 34.2275V34.0213C120.796 34.0171 120.956 34.0045 121.011 33.9877C121.07 33.9667 121.107 33.9414 121.124 33.912C121.154 33.8699 121.17 33.7647 121.175 33.6007C121.175 33.5544 121.183 33.2515 121.192 32.6878V30.3277L120.056 32.6499C119.88 33.0117 119.741 33.302 119.64 33.5249C119.569 33.6848 119.46 33.9414 119.312 34.2906H119.186C119.157 34.2107 119.132 34.1433 119.106 34.0929L118.884 33.6259L117.316 30.4329V32.6878C117.316 32.978 117.32 33.2641 117.328 33.5376C117.337 33.7395 117.349 33.8615 117.374 33.8993C117.4 33.9372 117.442 33.9667 117.496 33.9877C117.555 34.0045 117.711 34.0171 117.971 34.0213V34.2275L117.181 34.2022L116.361 34.2275V34.0213C116.618 34.0171 116.778 34.0045 116.832 33.9877C116.891 33.9667 116.929 33.9414 116.95 33.912C116.975 33.8699 116.992 33.7647 117 33.6007C117 33.5544 117.009 33.2515 117.013 32.6878V31.1985C117.013 30.9083 117.013 30.6222 117.005 30.3445C116.996 30.1426 116.983 30.0206 116.954 29.9827C116.929 29.9449 116.891 29.9154 116.832 29.8986C116.778 29.8776 116.618 29.8691 116.361 29.8649Z" fill="white"/>
<path d="M114.717 34.0213V34.2275C114.251 34.2107 113.944 34.2022 113.797 34.2022L112.784 34.2275V34.0213C113.044 34.0171 113.2 34.0045 113.254 33.9877C113.313 33.9667 113.351 33.9414 113.372 33.912C113.397 33.8699 113.414 33.7647 113.423 33.6007C113.423 33.5544 113.431 33.2515 113.435 32.6878V31.1985C113.435 30.9083 113.435 30.6222 113.427 30.3445C113.423 30.1426 113.406 30.0206 113.376 29.9827C113.351 29.9449 113.313 29.9154 113.254 29.8986C113.2 29.8776 113.04 29.8691 112.784 29.8649V29.6588C113.2 29.6756 113.523 29.6798 113.755 29.6798C113.986 29.6798 114.297 29.6714 114.722 29.6588V29.8649C114.461 29.8691 114.301 29.8818 114.247 29.8986C114.192 29.9154 114.154 29.9407 114.133 29.9743C114.108 30.0164 114.091 30.1216 114.083 30.2856C114.083 30.3277 114.074 30.6306 114.07 31.1985V32.6878C114.07 32.978 114.07 33.2641 114.078 33.5376C114.087 33.7395 114.099 33.8615 114.125 33.8993C114.15 33.9372 114.192 33.9667 114.247 33.9877C114.305 34.0045 114.461 34.0171 114.722 34.0213H114.717Z" fill="white"/>
<path d="M107.962 34.0676C107.996 33.8614 108.017 33.5291 108.025 33.0663H108.248C108.26 33.3776 108.277 33.5627 108.298 33.6216C108.324 33.6763 108.387 33.7352 108.483 33.8025C108.58 33.8656 108.71 33.9245 108.87 33.975C109.034 34.0255 109.189 34.0507 109.341 34.0507C109.564 34.0507 109.765 34.0003 109.95 33.9035C110.135 33.8025 110.274 33.6721 110.358 33.5123C110.442 33.3482 110.484 33.1757 110.484 32.9906C110.484 32.8476 110.463 32.7256 110.417 32.6246C110.375 32.5236 110.312 32.4395 110.224 32.3764C110.135 32.3133 110.026 32.267 109.9 32.2418C109.82 32.2292 109.656 32.2081 109.412 32.1787C109.168 32.1492 108.962 32.1156 108.79 32.0777C108.563 32.0104 108.395 31.9305 108.286 31.8379C108.176 31.7454 108.092 31.6234 108.025 31.4761C107.958 31.3247 107.928 31.1648 107.928 30.9923C107.928 30.7399 107.996 30.5001 108.13 30.2772C108.265 30.0542 108.466 29.8775 108.727 29.7513C108.992 29.6251 109.278 29.5662 109.589 29.5662C109.774 29.5662 109.976 29.5914 110.198 29.6419C110.421 29.6882 110.627 29.7597 110.816 29.8523C110.787 29.9869 110.766 30.1131 110.749 30.2309C110.736 30.3445 110.728 30.517 110.72 30.7441H110.497C110.488 30.416 110.48 30.2351 110.467 30.2056C110.413 30.1299 110.337 30.0584 110.245 29.9953C110.018 29.8691 109.782 29.8102 109.538 29.8102C109.219 29.8102 108.967 29.907 108.778 30.0963C108.588 30.2856 108.496 30.5296 108.496 30.8325C108.496 31.0134 108.529 31.1564 108.597 31.2574C108.664 31.3541 108.786 31.4341 108.962 31.4972C109.084 31.5392 109.282 31.5771 109.555 31.6149C109.828 31.6486 110.076 31.6865 110.295 31.7285C110.501 31.7874 110.652 31.8589 110.753 31.9431C110.85 32.023 110.934 32.1324 110.997 32.267C111.06 32.3974 111.094 32.5573 111.094 32.734C111.094 33.1589 110.913 33.5333 110.552 33.8488C110.19 34.1643 109.723 34.3242 109.147 34.3242C108.714 34.3242 108.319 34.24 107.97 34.0718L107.962 34.0676Z" fill="white"/>
<path d="M99.0837 29.9406V29.7429L99.874 29.5915C99.9623 29.6209 100.021 29.6504 100.055 29.6798C100.088 29.7051 100.156 29.785 100.261 29.9238C100.416 30.1257 100.597 30.4034 100.799 30.7568C101.001 31.1102 101.219 31.5098 101.45 31.9642C101.682 31.615 101.921 31.2364 102.165 30.8241L102.863 29.6588H103.363V29.7471C103.241 29.8775 103.023 30.1636 102.699 30.5969C102.514 30.8493 102.27 31.2153 101.972 31.6991C101.787 31.9978 101.682 32.1787 101.656 32.2502C101.631 32.3175 101.619 32.3806 101.619 32.4395V32.6877C101.619 32.978 101.619 33.2641 101.627 33.5375C101.635 33.7395 101.648 33.8615 101.673 33.8993C101.698 33.9372 101.74 33.9666 101.795 33.9877C101.854 34.0045 102.01 34.0171 102.27 34.0213V34.2275C101.913 34.2106 101.606 34.2022 101.345 34.2022C101.085 34.2022 100.765 34.2106 100.357 34.2275V34.0213C100.614 34.0171 100.774 34.0045 100.828 33.9877C100.887 33.9666 100.925 33.9414 100.942 33.9119C100.971 33.8699 100.988 33.7647 100.992 33.6006C100.992 33.5544 101.001 33.2515 101.005 32.6877V32.3133C100.959 32.2166 100.912 32.1282 100.87 32.0525C100.841 31.9978 100.727 31.8127 100.534 31.5014L100.32 31.1522C100.147 30.8788 100.021 30.6853 99.937 30.5675C99.7773 30.3445 99.647 30.1846 99.5419 30.0879C99.483 30.0332 99.4242 29.9953 99.3611 29.9743C99.3023 29.9533 99.2014 29.9406 99.071 29.9406H99.0837Z" fill="white"/>
<path d="M93.7827 34.2275V34.0255C94.0139 34.0255 94.1653 34.0045 94.2367 33.9751C94.2662 33.9624 94.2872 33.9414 94.304 33.912C94.325 33.8699 94.3418 33.7563 94.3502 33.5754C94.3628 33.2935 94.3713 33.0495 94.3713 32.8434V31.1985C94.3713 30.9082 94.3713 30.6222 94.3628 30.3445C94.3544 30.1426 94.3418 30.0206 94.3124 29.9827C94.2872 29.9449 94.2493 29.9154 94.1905 29.8986C94.1358 29.8776 93.9761 29.8691 93.7197 29.8649V29.6588L94.6571 29.6798L95.6492 29.663C96.1242 29.6546 96.469 29.6546 96.6833 29.6546C96.8977 29.6546 97.1037 29.6672 97.2971 29.6882C97.2635 29.8102 97.2383 29.9154 97.2256 30.008C97.2214 30.029 97.2004 30.252 97.1668 30.6769H96.9608C96.9608 30.4581 96.9482 30.2604 96.9188 30.0795C96.7969 30.029 96.6665 29.9953 96.5194 29.9785C96.2756 29.9491 96.0276 29.9322 95.7837 29.9322C95.7333 29.9322 95.6156 29.9364 95.4306 29.9449C95.2498 29.9533 95.1195 29.9617 95.0397 29.9659C95.0313 30.2057 95.0228 30.4287 95.0186 30.6348L95.006 31.7202C95.2625 31.7328 95.4979 31.7412 95.7123 31.7412C95.9729 31.7412 96.1957 31.7286 96.3807 31.7075C96.4521 31.6991 96.4942 31.6823 96.5152 31.6571C96.5362 31.6318 96.553 31.5435 96.5656 31.392L96.5867 31.1691H96.7842V31.2322L96.7674 31.9011L96.7842 32.6499H96.553L96.5446 32.4311C96.5404 32.2713 96.5236 32.1745 96.4984 32.1366C96.4732 32.0988 96.4269 32.0693 96.3554 32.0567C96.2293 32.0315 95.9897 32.0189 95.6282 32.0189C95.4811 32.0189 95.2751 32.0231 95.006 32.0357C94.9934 32.2502 94.9892 32.57 94.9892 32.9906C94.9892 33.3861 94.9934 33.689 95.006 33.8951C95.3213 33.9204 95.6744 33.9288 96.0654 33.9288C96.3428 33.9288 96.5404 33.9204 96.6581 33.9035C96.7758 33.8867 96.8851 33.8573 96.986 33.8152C97.0112 33.7479 97.0365 33.6595 97.0659 33.546C97.1121 33.3566 97.1458 33.2094 97.1626 33.1169H97.3812C97.3223 33.5502 97.2971 33.9077 97.2971 34.1938C97.1079 34.2233 96.8809 34.2359 96.6119 34.2359L94.6529 34.2106C94.6235 34.2106 94.3376 34.2191 93.7911 34.2359L93.7827 34.2275Z" fill="white"/>
<path d="M86.8044 34.2275V34.0255C87.0356 34.0255 87.187 34.0045 87.2584 33.9751C87.2879 33.9624 87.3089 33.9414 87.3257 33.912C87.3467 33.8699 87.3635 33.7563 87.3719 33.5754C87.3846 33.2935 87.393 33.0495 87.393 32.8434V30.2225C87.393 30.151 87.3888 30.1047 87.3804 30.0837C87.3635 30.0458 87.3215 29.9996 87.2627 29.9449C87.2248 29.9112 87.1786 29.8902 87.1239 29.8818C87.0735 29.8691 86.96 29.8649 86.7834 29.8607V29.6588C87.1491 29.6672 87.3804 29.6714 87.4728 29.6714C87.6326 29.6714 87.7923 29.6714 87.9479 29.6588C88.1328 29.8986 88.2716 30.0711 88.3598 30.1847L89.0409 31.005L90.033 32.1745C90.3524 32.5489 90.6047 32.8392 90.798 33.0538C90.92 33.1968 91.0251 33.3062 91.1049 33.3903V31.0387C91.1049 30.8283 91.0965 30.5801 91.0839 30.2982C91.0755 30.1216 91.0629 30.008 91.0419 29.9659C91.0251 29.9365 91.004 29.9196 90.9746 29.907C90.9032 29.8776 90.7518 29.8607 90.5248 29.8565V29.6546C90.7812 29.663 91.0461 29.6672 91.3109 29.6672C91.5589 29.6672 91.7859 29.6672 91.9919 29.6546V29.8565C91.7649 29.8565 91.6136 29.8733 91.5421 29.907C91.5127 29.9196 91.4917 29.9407 91.4749 29.9701C91.4538 30.0122 91.437 30.1216 91.4286 30.3067C91.416 30.5885 91.4076 30.8325 91.4076 31.0387V32.5826C91.4076 32.8939 91.4118 33.4786 91.4244 34.3326L91.0881 34.2359L91.0082 34.2191C91.0082 34.2191 90.983 34.2064 90.9704 34.198C90.9536 34.1854 90.9116 34.1433 90.8443 34.0676C90.6635 33.8657 90.529 33.7142 90.4449 33.6133L90.0203 33.0874L87.6914 30.3656V32.8308C87.6914 33.0411 87.6998 33.2893 87.7125 33.5712C87.7209 33.7479 87.7335 33.8573 87.7545 33.8993C87.7713 33.9288 87.7923 33.9498 87.8218 33.9624C87.8932 33.9919 88.0446 34.0087 88.2716 34.0129V34.2149C88.0782 34.198 87.868 34.1938 87.6368 34.1938C87.3846 34.1938 87.1071 34.2022 86.8086 34.2149L86.8044 34.2275Z" fill="white"/>
<path d="M80.9273 29.8649V29.6588C81.0114 29.6588 81.1417 29.663 81.3183 29.6672L81.9489 29.684C82.075 29.684 82.2684 29.6798 82.529 29.6714C82.8695 29.6588 83.0671 29.6546 83.1217 29.6546C83.5379 29.6546 83.8448 29.6924 84.034 29.764C84.2273 29.8355 84.3745 29.9575 84.4796 30.1216C84.5847 30.2856 84.6393 30.4623 84.6393 30.6558C84.6393 30.8367 84.5889 31.0134 84.4922 31.1943C84.3913 31.371 84.2483 31.5182 84.0634 31.636C83.8784 31.7538 83.6346 31.8464 83.3361 31.9095C83.3908 31.9852 83.5211 32.1535 83.7229 32.4101L84.551 33.4786C84.7864 33.7773 84.9252 33.9414 84.9672 33.9751C84.9882 33.9919 85.005 34.0003 85.0261 34.0087C85.0597 34.0213 85.1311 34.0255 85.2447 34.0255V34.2317C85.0765 34.2191 84.9336 34.2106 84.8075 34.2106C84.6813 34.2106 84.5216 34.2191 84.3324 34.2317C84.1895 34.0718 83.9499 33.7563 83.6178 33.2893C83.4328 33.0285 83.2689 32.814 83.1259 32.6415C82.8947 32.3554 82.6761 32.0946 82.4701 31.859L82.5038 31.7622C82.6173 31.7664 82.7055 31.7707 82.7644 31.7707C83.1638 31.7707 83.4664 31.6781 83.6724 31.493C83.8784 31.3079 83.9835 31.0639 83.9835 30.7652C83.9835 30.5002 83.8952 30.294 83.7187 30.1384C83.5421 29.9827 83.2731 29.9028 82.9157 29.9028C82.6887 29.9028 82.4701 29.9364 82.2515 30.0038C82.2431 30.1216 82.2347 30.2267 82.2305 30.3277C82.2305 30.3571 82.2221 30.6684 82.2095 31.2616V32.6878C82.2095 32.978 82.2095 33.2641 82.2221 33.5375C82.2263 33.7395 82.2389 33.8615 82.2642 33.8993C82.2894 33.9372 82.3314 33.9666 82.3903 33.9877C82.4491 34.0045 82.6047 34.0171 82.8611 34.0213V34.2275C82.55 34.2106 82.2641 34.2022 82.0035 34.2022C81.7933 34.2022 81.4402 34.2106 80.9442 34.2275V34.0213C81.2006 34.0171 81.3603 34.0045 81.415 33.9877C81.4738 33.9666 81.5117 33.9414 81.5327 33.912C81.5579 33.8699 81.5747 33.7647 81.5831 33.6006C81.5831 33.5544 81.5873 33.2515 81.5957 32.6878V31.1985C81.5957 30.9082 81.5957 30.6222 81.5873 30.3445C81.5831 30.1426 81.5663 30.0206 81.5369 29.9827C81.5117 29.9449 81.4738 29.9154 81.415 29.8986C81.3603 29.8776 81.2006 29.8691 80.9442 29.8649H80.9273Z" fill="white"/>
<path d="M74.298 29.8649V29.6588C74.6553 29.6756 74.9874 29.684 75.2943 29.684C75.6012 29.684 75.9123 29.6756 76.2191 29.6588V29.8649C75.9627 29.8691 75.803 29.8818 75.7483 29.8986C75.6937 29.9154 75.6516 29.9407 75.6348 29.9743C75.6054 30.0164 75.5886 30.1216 75.5844 30.2856C75.5844 30.3277 75.5802 30.6306 75.5718 31.1985V32.3891C75.5718 32.8518 75.6012 33.1547 75.66 33.302C75.7231 33.4492 75.8198 33.567 75.9501 33.6638C76.051 33.7353 76.1855 33.7942 76.3579 33.8405C76.5302 33.8825 76.7194 33.9036 76.9296 33.9036C77.1734 33.9036 77.392 33.8741 77.5812 33.8152C77.7704 33.7563 77.9133 33.6848 78.01 33.6007C78.1067 33.5165 78.1781 33.4198 78.2244 33.3146C78.2748 33.2094 78.3084 33.0664 78.3253 32.8855C78.3463 32.7004 78.3589 32.469 78.3589 32.1871V31.1985C78.3589 30.9083 78.3589 30.6222 78.3463 30.3445C78.3463 30.1426 78.3253 30.0206 78.3 29.9827C78.2748 29.9449 78.237 29.9154 78.1781 29.8986C78.1193 29.8776 77.9637 29.8691 77.7073 29.8649V29.6588C78.0688 29.6756 78.3337 29.684 78.4976 29.684C78.6489 29.684 78.9222 29.6756 79.3174 29.6588V29.8649C79.0567 29.8691 78.897 29.8818 78.8423 29.8986C78.7877 29.9154 78.7498 29.9407 78.7288 29.9743C78.7036 30.0164 78.6868 30.1216 78.6784 30.2856C78.6784 30.3277 78.6742 30.6306 78.6658 31.1985V32.2755C78.6658 32.8056 78.6279 33.1758 78.5523 33.3861C78.4766 33.5965 78.3379 33.7816 78.1361 33.9414C77.9847 34.0634 77.7914 34.156 77.5518 34.2233C77.3163 34.2906 77.0515 34.3242 76.7614 34.3242C76.4251 34.3242 76.1309 34.2864 75.8828 34.2107C75.6348 34.1307 75.4456 34.0298 75.3195 33.9036C75.1892 33.7731 75.1009 33.6427 75.0547 33.5123C74.9916 33.3356 74.9622 33.0411 74.9622 32.6289V31.2069C74.9622 30.9167 74.9622 30.6306 74.9538 30.3529C74.9454 30.151 74.9328 30.029 74.9034 29.9912C74.8781 29.9533 74.8403 29.9238 74.7814 29.907C74.7268 29.886 74.5671 29.8776 74.3106 29.8734L74.298 29.8649Z" fill="white"/>
<path d="M67.7275 31.9725C67.7275 31.636 67.7779 31.3205 67.883 31.0344C67.9881 30.7483 68.1605 30.4875 68.4043 30.2603C68.6481 30.0332 68.9172 29.8607 69.2198 29.7429C69.5225 29.6251 69.8714 29.5662 70.2624 29.5662C70.6239 29.5662 70.9518 29.6167 71.2461 29.7176C71.5403 29.8144 71.7842 29.949 71.9733 30.1131C72.1625 30.2772 72.3138 30.4538 72.4231 30.6516C72.5072 30.7988 72.5703 30.9671 72.6207 31.1648C72.6712 31.3625 72.6964 31.5729 72.6964 31.8001C72.6964 32.5236 72.4484 33.1252 71.9523 33.6048C71.4563 34.0844 70.8341 34.3242 70.0774 34.3242C69.7327 34.3242 69.4132 34.2695 69.1147 34.1601C68.8163 34.0507 68.564 33.8909 68.358 33.6763C68.1521 33.4618 67.9965 33.1967 67.8872 32.8938C67.7821 32.5867 67.7275 32.2796 67.7275 31.9809V31.9725ZM68.4085 31.7075C68.4085 31.9094 68.4295 32.1198 68.4715 32.3259C68.5136 32.5363 68.564 32.7171 68.6313 32.8686C68.7364 33.1252 68.8709 33.344 69.0433 33.5165C69.2156 33.6889 69.4048 33.8194 69.6108 33.9035C69.821 33.9834 70.0522 34.0255 70.3086 34.0255C70.6617 34.0255 70.9686 33.9414 71.2293 33.7731C71.4899 33.6048 71.6833 33.365 71.8094 33.0621C71.9397 32.755 72.0028 32.4016 72.0028 32.0062C72.0028 31.6654 71.9565 31.3499 71.864 31.0638C71.8094 30.8872 71.7295 30.7315 71.637 30.5885C71.5445 30.4454 71.431 30.3192 71.3007 30.2141C71.1704 30.1047 71.0022 30.0163 70.7963 29.9448C70.5903 29.8733 70.3633 29.8354 70.1236 29.8354C69.7747 29.8354 69.4679 29.9112 69.2072 30.0626C68.9466 30.2141 68.7448 30.437 68.6145 30.7231C68.4842 31.0092 68.4169 31.3373 68.4169 31.6991L68.4085 31.7075Z" fill="white"/>
<path d="M63.9019 35.4601L63.9103 35.2371V35.1908C63.9103 35.1404 63.9103 35.0646 63.9019 34.9637L63.9649 34.9216C64.028 34.9679 64.0868 34.9973 64.1373 35.0142C64.1919 35.0352 64.2508 35.0436 64.318 35.0436C64.4357 35.0436 64.5282 35.0184 64.5913 34.9721C64.6543 34.9258 64.7006 34.8543 64.73 34.7575C64.7594 34.6608 64.772 34.4042 64.772 33.9877V31.1943C64.772 30.904 64.7678 30.618 64.7594 30.3403C64.7552 30.1384 64.7384 30.0164 64.7132 29.9785C64.688 29.9407 64.6501 29.9112 64.5913 29.8944C64.5324 29.8733 64.3769 29.8649 64.1205 29.8607V29.6546C64.4652 29.6672 64.7889 29.6756 65.0915 29.6756C65.411 29.6756 65.7347 29.6672 66.0668 29.6546V29.8607C65.8062 29.8649 65.6506 29.8776 65.596 29.8944C65.5413 29.9112 65.4993 29.9364 65.4825 29.9701C65.4531 30.0122 65.4362 30.1173 65.432 30.2814C65.432 30.3235 65.4278 30.6264 65.4194 31.1943V33.5039C65.4194 33.8573 65.39 34.1307 65.3269 34.3369C65.2639 34.5388 65.163 34.7323 65.0159 34.9174C64.8729 35.1025 64.7132 35.2413 64.545 35.3339C64.3727 35.4264 64.2087 35.4769 64.049 35.4769C64.007 35.4769 63.9607 35.4727 63.9103 35.4601H63.9019Z" fill="white"/>
</svg>
