<svg width="20" height="20" viewBox="0 0 20 20" fill="none" xmlns="http://www.w3.org/2000/svg">
<mask id="mask0_2135_3298" style="mask-type:alpha" maskUnits="userSpaceOnUse" x="0" y="0" width="20" height="20">
<rect width="20" height="20" fill="#D9D9D9"/>
</mask>
<g mask="url(#mask0_2135_3298)">
<path d="M7.62796 14.7114C7.20713 14.7114 6.85088 14.5655 6.55921 14.2739C6.26755 13.9822 6.12171 13.626 6.12171 13.2051V3.58971C6.12171 3.16874 6.26755 2.81242 6.55921 2.52075C6.85088 2.22909 7.20713 2.08325 7.62796 2.08325H14.7434C15.1644 2.08325 15.5207 2.22909 15.8123 2.52075C16.104 2.81242 16.2498 3.16874 16.2498 3.58971V13.2051C16.2498 13.626 16.104 13.9822 15.8123 14.2739C15.5207 14.5655 15.1644 14.7114 14.7434 14.7114H7.62796ZM7.62796 13.4614H14.7434C14.8075 13.4614 14.8663 13.4347 14.9196 13.3814C14.9731 13.3279 14.9998 13.2692 14.9998 13.2051V3.58971C14.9998 3.52554 14.9731 3.46679 14.9196 3.41346C14.8663 3.35999 14.8075 3.33325 14.7434 3.33325H7.62796C7.56393 3.33325 7.50518 3.35999 7.45171 3.41346C7.39838 3.46679 7.37171 3.52554 7.37171 3.58971V13.2051C7.37171 13.2692 7.39838 13.3279 7.45171 13.3814C7.50518 13.4347 7.56393 13.4614 7.62796 13.4614ZM3.58963 6.12159C3.39893 6.12159 3.23907 6.05714 3.11005 5.92825C2.98102 5.79922 2.9165 5.63936 2.9165 5.44867C2.9165 5.25797 2.98102 5.09811 3.11005 4.96909C3.23907 4.84006 3.39893 4.77554 3.58963 4.77554C3.78032 4.77554 3.94018 4.84006 4.06921 4.96909C4.19824 5.09811 4.26275 5.25797 4.26275 5.44867C4.26275 5.63936 4.19824 5.79922 4.06921 5.92825C3.94018 6.05714 3.78032 6.12159 3.58963 6.12159ZM3.58963 9.07034C3.39893 9.07034 3.23907 9.00582 3.11005 8.87679C2.98102 8.74791 2.9165 8.58811 2.9165 8.39742C2.9165 8.20672 2.98102 8.04686 3.11005 7.91784C3.23907 7.78881 3.39893 7.72429 3.58963 7.72429C3.78032 7.72429 3.94018 7.78881 4.06921 7.91784C4.19824 8.04686 4.26275 8.20672 4.26275 8.39742C4.26275 8.58811 4.19824 8.74791 4.06921 8.87679C3.94018 9.00582 3.78032 9.07034 3.58963 9.07034ZM3.58963 12.0191C3.39893 12.0191 3.23907 11.9546 3.11005 11.8255C2.98102 11.6965 2.9165 11.5367 2.9165 11.346C2.9165 11.1553 2.98102 10.9955 3.11005 10.8666C3.23907 10.7376 3.39893 10.673 3.58963 10.673C3.78032 10.673 3.94018 10.7376 4.06921 10.8666C4.19824 10.9955 4.26275 11.1553 4.26275 11.346C4.26275 11.5367 4.19824 11.6965 4.06921 11.8255C3.94018 11.9546 3.78032 12.0191 3.58963 12.0191ZM3.58963 14.9678C3.39893 14.9678 3.23907 14.9033 3.11005 14.7743C2.98102 14.6453 2.9165 14.4854 2.9165 14.2947C2.9165 14.104 2.98102 13.9442 3.11005 13.8151C3.23907 13.6862 3.39893 13.6218 3.58963 13.6218C3.78032 13.6218 3.94018 13.6862 4.06921 13.8151C4.19824 13.9442 4.26275 14.104 4.26275 14.2947C4.26275 14.4854 4.19824 14.6453 4.06921 14.7743C3.94018 14.9033 3.78032 14.9678 3.58963 14.9678ZM3.58963 17.9166C3.39893 17.9166 3.23907 17.8521 3.11005 17.723C2.98102 17.594 2.9165 17.4342 2.9165 17.2435C2.9165 17.0528 2.98102 16.8929 3.11005 16.7639C3.23907 16.6348 3.39893 16.5703 3.58963 16.5703C3.78032 16.5703 3.94018 16.6348 4.06921 16.7639C4.19824 16.8929 4.26275 17.0528 4.26275 17.2435C4.26275 17.4342 4.19824 17.594 4.06921 17.723C3.94018 17.8521 3.78032 17.9166 3.58963 17.9166ZM6.53838 17.9166C6.34768 17.9166 6.18782 17.8521 6.0588 17.723C5.92977 17.594 5.86525 17.4342 5.86525 17.2435C5.86525 17.0528 5.92977 16.8929 6.0588 16.7639C6.18782 16.6348 6.34768 16.5703 6.53838 16.5703C6.72907 16.5703 6.88893 16.6348 7.01796 16.7639C7.14685 16.8929 7.2113 17.0528 7.2113 17.2435C7.2113 17.4342 7.14685 17.594 7.01796 17.723C6.88893 17.8521 6.72907 17.9166 6.53838 17.9166ZM9.48713 17.9166C9.29643 17.9166 9.13657 17.8521 9.00755 17.723C8.87852 17.594 8.814 17.4342 8.814 17.2435C8.814 17.0528 8.87852 16.8929 9.00755 16.7639C9.13657 16.6348 9.29643 16.5703 9.48713 16.5703C9.67782 16.5703 9.83762 16.6348 9.9665 16.7639C10.0955 16.8929 10.16 17.0528 10.16 17.2435C10.16 17.4342 10.0955 17.594 9.9665 17.723C9.83762 17.8521 9.67782 17.9166 9.48713 17.9166ZM12.4357 17.9166C12.245 17.9166 12.0852 17.8521 11.9563 17.723C11.8273 17.594 11.7628 17.4342 11.7628 17.2435C11.7628 17.0528 11.8273 16.8929 11.9563 16.7639C12.0852 16.6348 12.245 16.5703 12.4357 16.5703C12.6264 16.5703 12.7862 16.6348 12.9153 16.7639C13.0443 16.8929 13.1088 17.0528 13.1088 17.2435C13.1088 17.4342 13.0443 17.594 12.9153 17.723C12.7862 17.8521 12.6264 17.9166 12.4357 17.9166Z" fill="white"/>
</g>
</svg>
