<svg width="32" height="32" viewBox="0 0 32 32" fill="none" xmlns="http://www.w3.org/2000/svg">
<mask id="mask0_2192_864" style="mask-type:alpha" maskUnits="userSpaceOnUse" x="0" y="0" width="32" height="32">
<rect width="32" height="32" fill="#D9D9D9"/>
</mask>
<g mask="url(#mask0_2192_864)">
<path d="M10.6666 18.5127C10.3915 18.5127 10.1517 18.4106 9.94725 18.2064C9.74303 18.0022 9.64092 17.7625 9.64092 17.4874C9.64092 17.212 9.74303 16.9723 9.94725 16.768C10.1517 16.5638 10.3915 16.4617 10.6666 16.4617C10.9417 16.4617 11.1815 16.5638 11.3859 16.768C11.5901 16.9723 11.6923 17.212 11.6923 17.4874C11.6923 17.7625 11.5901 18.0022 11.3859 18.2064C11.1815 18.4106 10.9417 18.5127 10.6666 18.5127ZM15.9999 18.5127C15.7248 18.5127 15.485 18.4106 15.2806 18.2064C15.0764 18.0022 14.9743 17.7625 14.9743 17.4874C14.9743 17.212 15.0764 16.9723 15.2806 16.768C15.485 16.5638 15.7248 16.4617 15.9999 16.4617C16.275 16.4617 16.5148 16.5638 16.7193 16.768C16.9235 16.9723 17.0256 17.212 17.0256 17.4874C17.0256 17.7625 16.9235 18.0022 16.7193 18.2064C16.5148 18.4106 16.275 18.5127 15.9999 18.5127ZM21.3333 18.5127C21.0581 18.5127 20.8184 18.4106 20.6139 18.2064C20.4097 18.0022 20.3076 17.7625 20.3076 17.4874C20.3076 17.212 20.4097 16.9723 20.6139 16.768C20.8184 16.5638 21.0581 16.4617 21.3333 16.4617C21.6084 16.4617 21.8481 16.5638 22.0526 16.768C22.2568 16.9723 22.3589 17.212 22.3589 17.4874C22.3589 17.7625 22.2568 18.0022 22.0526 18.2064C21.8481 18.4106 21.6084 18.5127 21.3333 18.5127ZM7.48725 28C6.87347 28 6.36103 27.7945 5.94992 27.3834C5.53881 26.9723 5.33325 26.4598 5.33325 25.846V8.82071C5.33325 8.20694 5.53881 7.69449 5.94992 7.28338C6.36103 6.87227 6.87347 6.66672 7.48725 6.66672H9.84592V4.41038C9.84592 4.20349 9.91392 4.03205 10.0499 3.89605C10.1859 3.76027 10.3573 3.69238 10.5639 3.69238C10.7708 3.69238 10.9423 3.76027 11.0783 3.89605C11.214 4.03205 11.2819 4.20349 11.2819 4.41038V6.66672H20.8206V4.35905C20.8206 4.16927 20.8843 4.01072 21.0116 3.88338C21.1389 3.75605 21.2975 3.69238 21.4873 3.69238C21.6768 3.69238 21.8353 3.75605 21.9626 3.88338C22.0901 4.01072 22.1539 4.16927 22.1539 4.35905V6.66672H24.5126C25.1264 6.66672 25.6388 6.87227 26.0499 7.28338C26.461 7.69449 26.6666 8.20694 26.6666 8.82071V25.846C26.6666 26.4598 26.461 26.9723 26.0499 27.3834C25.6388 27.7945 25.1264 28 24.5126 28H7.48725ZM7.48725 26.6667H24.5126C24.7179 26.6667 24.906 26.5813 25.0769 26.4104C25.2478 26.2395 25.3333 26.0514 25.3333 25.846V14.154H6.66659V25.846C6.66659 26.0514 6.75203 26.2395 6.92292 26.4104C7.09381 26.5813 7.28192 26.6667 7.48725 26.6667ZM6.66659 12.8204H25.3333V8.82071C25.3333 8.61538 25.2478 8.42727 25.0769 8.25638C24.906 8.08549 24.7179 8.00005 24.5126 8.00005H7.48725C7.28192 8.00005 7.09381 8.08549 6.92292 8.25638C6.75203 8.42727 6.66659 8.61538 6.66659 8.82071V12.8204Z" fill="white"/>
</g>
</svg>
