<svg width="20" height="20" viewBox="0 0 20 20" fill="none" xmlns="http://www.w3.org/2000/svg">
<mask id="mask0_2346_16394" style="mask-type:alpha" maskUnits="userSpaceOnUse" x="0" y="0" width="20" height="20">
<rect width="20" height="20" fill="#D9D9D9"/>
</mask>
<g mask="url(#mask0_2346_16394)">
<path d="M7.50034 16.3461C7.1302 16.3461 6.81332 16.2143 6.54971 15.9507C6.2861 15.6871 6.1543 15.3702 6.1543 15.0001C6.1543 14.63 6.2861 14.3131 6.54971 14.0495C6.81332 13.7859 7.1302 13.6541 7.50034 13.6541C7.87048 13.6541 8.18735 13.7859 8.45096 14.0495C8.71457 14.3131 8.84638 14.63 8.84638 15.0001C8.84638 15.3702 8.71457 15.6871 8.45096 15.9507C8.18735 16.2143 7.87048 16.3461 7.50034 16.3461ZM12.5003 16.3461C12.1302 16.3461 11.8133 16.2143 11.5497 15.9507C11.2861 15.6871 11.1543 15.3702 11.1543 15.0001C11.1543 14.63 11.2861 14.3131 11.5497 14.0495C11.8133 13.7859 12.1302 13.6541 12.5003 13.6541C12.8705 13.6541 13.1874 13.7859 13.451 14.0495C13.7146 14.3131 13.8464 14.63 13.8464 15.0001C13.8464 15.3702 13.7146 15.6871 13.451 15.9507C13.1874 16.2143 12.8705 16.3461 12.5003 16.3461ZM7.50034 11.3461C7.1302 11.3461 6.81332 11.2143 6.54971 10.9507C6.2861 10.6871 6.1543 10.3702 6.1543 10.0001C6.1543 9.62996 6.2861 9.31308 6.54971 9.04947C6.81332 8.78586 7.1302 8.65405 7.50034 8.65405C7.87048 8.65405 8.18735 8.78586 8.45096 9.04947C8.71457 9.31308 8.84638 9.62996 8.84638 10.0001C8.84638 10.3702 8.71457 10.6871 8.45096 10.9507C8.18735 11.2143 7.87048 11.3461 7.50034 11.3461ZM12.5003 11.3461C12.1302 11.3461 11.8133 11.2143 11.5497 10.9507C11.2861 10.6871 11.1543 10.3702 11.1543 10.0001C11.1543 9.62996 11.2861 9.31308 11.5497 9.04947C11.8133 8.78586 12.1302 8.65405 12.5003 8.65405C12.8705 8.65405 13.1874 8.78586 13.451 9.04947C13.7146 9.31308 13.8464 9.62996 13.8464 10.0001C13.8464 10.3702 13.7146 10.6871 13.451 10.9507C13.1874 11.2143 12.8705 11.3461 12.5003 11.3461ZM7.50034 6.34614C7.1302 6.34614 6.81332 6.21433 6.54971 5.95072C6.2861 5.68711 6.1543 5.37023 6.1543 5.00009C6.1543 4.62996 6.2861 4.31308 6.54971 4.04947C6.81332 3.78586 7.1302 3.65405 7.50034 3.65405C7.87048 3.65405 8.18735 3.78586 8.45096 4.04947C8.71457 4.31308 8.84638 4.62996 8.84638 5.00009C8.84638 5.37023 8.71457 5.68711 8.45096 5.95072C8.18735 6.21433 7.87048 6.34614 7.50034 6.34614ZM12.5003 6.34614C12.1302 6.34614 11.8133 6.21433 11.5497 5.95072C11.2861 5.68711 11.1543 5.37023 11.1543 5.00009C11.1543 4.62996 11.2861 4.31308 11.5497 4.04947C11.8133 3.78586 12.1302 3.65405 12.5003 3.65405C12.8705 3.65405 13.1874 3.78586 13.451 4.04947C13.7146 4.31308 13.8464 4.62996 13.8464 5.00009C13.8464 5.37023 13.7146 5.68711 13.451 5.95072C13.1874 6.21433 12.8705 6.34614 12.5003 6.34614Z" fill="white" fill-opacity="0.4"/>
</g>
</svg>
