<svg width="20" height="20" viewBox="0 0 20 20" fill="none" xmlns="http://www.w3.org/2000/svg">
<mask id="mask0_2272_2157" style="mask-type:alpha" maskUnits="userSpaceOnUse" x="0" y="0" width="20" height="20">
<rect width="20" height="20" fill="#D9D9D9"/>
</mask>
<g mask="url(#mask0_2272_2157)">
<path d="M3.74967 17.4519C3.63162 17.4519 3.53266 17.4119 3.4528 17.3319C3.37294 17.2519 3.33301 17.1528 3.33301 17.0347C3.33301 16.9165 3.37294 16.8176 3.4528 16.738C3.53266 16.6584 3.63162 16.6186 3.74967 16.6186H16.2497C16.3677 16.6186 16.4667 16.6586 16.5465 16.7386C16.6264 16.8186 16.6663 16.9177 16.6663 17.0359C16.6663 17.1541 16.6264 17.253 16.5465 17.3326C16.4667 17.4122 16.3677 17.4519 16.2497 17.4519H3.74967ZM15.1855 13.4359L4.30092 10.2788C4.00398 10.1998 3.76842 10.0385 3.59426 9.79486C3.42009 9.55125 3.33301 9.27937 3.33301 8.97923V5.66027C3.33301 5.4893 3.40141 5.35256 3.53822 5.25006C3.67488 5.14743 3.82766 5.11937 3.99655 5.1659L4.28801 5.24986C4.37245 5.27777 4.44273 5.31819 4.49884 5.37111C4.55495 5.42388 4.59849 5.49305 4.62947 5.57861L5.48363 8.08986L8.88759 9.07861L8.30426 3.22444C8.27315 2.99152 8.34926 2.80055 8.53259 2.65152C8.71578 2.50249 8.92009 2.4634 9.14551 2.53423L9.42946 2.61402C9.52863 2.64055 9.61565 2.6918 9.69051 2.76777C9.76523 2.84361 9.82023 2.93062 9.85551 3.02881L12.2432 10.0561L15.7945 11.093C16.045 11.1735 16.253 11.3196 16.4184 11.5311C16.5837 11.7426 16.6663 11.9844 16.6663 12.2565C16.6663 12.609 16.5218 12.9239 16.2328 13.2011C15.9438 13.4783 15.5947 13.5566 15.1855 13.4359Z" fill="#F33F3F"/>
</g>
</svg>
