<svg width="24" height="24" viewBox="0 0 24 24" fill="none" xmlns="http://www.w3.org/2000/svg">
<mask id="mask0_2642_19010" style="mask-type:alpha" maskUnits="userSpaceOnUse" x="0" y="0" width="24" height="24">
<rect width="24" height="24" fill="#D9D9D9"/>
</mask>
<g mask="url(#mask0_2642_19010)">
<path d="M1.5 18.5V4.5H3V14H11.25V6.5H19C19.9625 6.5 20.7864 6.84275 21.4718 7.52825C22.1573 8.21358 22.5 9.0375 22.5 10V18.5H21V15.5H3V18.5H1.5ZM6.99875 12.5577C6.28808 12.5577 5.68433 12.3089 5.1875 11.8113C4.69067 11.3138 4.44225 10.7096 4.44225 9.99875C4.44225 9.28808 4.69108 8.68433 5.18875 8.1875C5.68625 7.69067 6.29042 7.44225 7.00125 7.44225C7.71192 7.44225 8.31567 7.69108 8.8125 8.18875C9.30933 8.68625 9.55775 9.29042 9.55775 10.0012C9.55775 10.7119 9.30892 11.3157 8.81125 11.8125C8.31375 12.3093 7.70958 12.5577 6.99875 12.5577ZM12.75 14H21V10C21 9.45 20.8042 8.97917 20.4125 8.5875C20.0208 8.19583 19.55 8 19 8H12.75V14ZM7 11.0578C7.29617 11.0578 7.5465 10.9555 7.751 10.751C7.9555 10.5465 8.05775 10.2962 8.05775 10C8.05775 9.70383 7.9555 9.4535 7.751 9.249C7.5465 9.0445 7.29617 8.94225 7 8.94225C6.70383 8.94225 6.4535 9.0445 6.249 9.249C6.0445 9.4535 5.94225 9.70383 5.94225 10C5.94225 10.2962 6.0445 10.5465 6.249 10.751C6.4535 10.9555 6.70383 11.0578 7 11.0578Z" fill="#F33F3F"/>
</g>
</svg>
