<svg width="20" height="20" viewBox="0 0 20 20" fill="none" xmlns="http://www.w3.org/2000/svg">
<mask id="mask0_2183_2643" style="mask-type:alpha" maskUnits="userSpaceOnUse" x="0" y="0" width="20" height="20">
<rect width="20" height="20" fill="#D9D9D9"/>
</mask>
<g mask="url(#mask0_2183_2643)">
<path d="M2.61911 7.80909L5.19286 3.24326C5.27092 3.10659 5.36578 3.00749 5.47745 2.94596C5.58925 2.88457 5.71349 2.85388 5.85015 2.85388C5.98682 2.85388 6.11092 2.88457 6.22244 2.94596C6.33411 3.00749 6.42897 3.10659 6.50703 3.24326L9.08078 7.80909C9.15022 7.93562 9.18147 8.06215 9.17453 8.18867C9.16758 8.3152 9.13203 8.43541 9.06786 8.5493C9.00536 8.66235 8.91786 8.75339 8.80536 8.82242C8.693 8.89145 8.56536 8.92596 8.42244 8.92596H3.27744C3.13453 8.92596 3.00682 8.89145 2.89432 8.82242C2.78196 8.75339 2.69453 8.66235 2.63203 8.5493C2.56786 8.43541 2.53231 8.3152 2.52536 8.18867C2.51842 8.06215 2.54967 7.93562 2.61911 7.80909ZM5.85786 17.2993C4.98939 17.2993 4.25008 16.9943 3.63994 16.3843C3.02994 15.7743 2.72494 15.0361 2.72494 14.1697C2.72494 13.2904 3.02994 12.5478 3.63994 11.942C4.25008 11.3363 4.98939 11.0335 5.85786 11.0335C6.72647 11.0335 7.46578 11.3385 8.07578 11.9485C8.68592 12.5585 8.99099 13.2978 8.99099 14.1664C8.99099 15.035 8.68592 15.7743 8.07578 16.3843C7.46578 16.9943 6.72647 17.2993 5.85786 17.2993ZM5.85786 16.0495C6.38036 16.0495 6.82481 15.8662 7.1912 15.4997C7.55772 15.1333 7.74099 14.6889 7.74099 14.1664C7.74099 13.6439 7.55772 13.1994 7.1912 12.833C6.82481 12.4665 6.38036 12.2833 5.85786 12.2833C5.3355 12.2833 4.89106 12.4665 4.52453 12.833C4.15814 13.1994 3.97494 13.6439 3.97494 14.1664C3.97494 14.6889 4.15814 15.1333 4.52453 15.4997C4.89106 15.8662 5.3355 16.0495 5.85786 16.0495ZM4.1239 7.67596H7.5839L5.84994 4.63909L4.1239 7.67596ZM11.0504 16.5462V11.7866C11.0504 11.5731 11.1225 11.3942 11.2668 11.2499C11.4111 11.1056 11.59 11.0335 11.8035 11.0335H16.5631C16.7764 11.0335 16.9553 11.1056 17.0997 11.2499C17.244 11.3942 17.3162 11.5731 17.3162 11.7866V16.5462C17.3162 16.7596 17.244 16.9385 17.0997 17.0828C16.9553 17.2271 16.7764 17.2993 16.5631 17.2993H11.8035C11.59 17.2993 11.4111 17.2271 11.2668 17.0828C11.1225 16.9385 11.0504 16.7596 11.0504 16.5462ZM12.3002 16.0495H16.0662V12.2833H12.3002V16.0495ZM13.6977 8.52367L12.7858 7.76263C11.9451 7.06916 11.3295 6.48048 10.9389 5.99659C10.5483 5.51256 10.3531 4.98319 10.3531 4.40846C10.3531 3.84749 10.5438 3.37846 10.9254 3.00138C11.3068 2.62416 11.7864 2.43555 12.3643 2.43555C12.7179 2.43555 13.0486 2.51971 13.3562 2.68805C13.664 2.85638 13.9397 3.0986 14.1833 3.41471C14.4269 3.10388 14.7052 2.86298 15.0183 2.69201C15.3312 2.52103 15.6618 2.43555 16.0102 2.43555C16.5807 2.43555 17.0572 2.62839 17.4397 3.01409C17.8221 3.39978 18.0133 3.87256 18.0133 4.43242C18.0133 5.00187 17.8181 5.52589 17.4277 6.00451C17.0371 6.48312 16.4215 7.06916 15.5808 7.76263L14.6689 8.52367C14.5318 8.64659 14.3699 8.70805 14.1831 8.70805C13.9963 8.70805 13.8345 8.64659 13.6977 8.52367ZM14.1833 7.29138C15.1673 6.50083 15.8433 5.90256 16.2114 5.49659C16.5795 5.09062 16.7635 4.7418 16.7635 4.45013C16.7635 4.2268 16.6954 4.04353 16.5591 3.90034C16.4229 3.75714 16.2458 3.68555 16.0279 3.68555C15.8687 3.68555 15.7135 3.7318 15.5622 3.8243C15.4111 3.91666 15.2116 4.0868 14.9637 4.33471L14.1833 5.08951L13.4029 4.33471C13.1497 4.08152 12.949 3.90999 12.801 3.82013C12.6531 3.73041 12.499 3.68555 12.3387 3.68555C12.1154 3.68555 11.937 3.75312 11.8035 3.88826C11.6699 4.0234 11.6031 4.20534 11.6031 4.43409C11.6031 4.73645 11.7871 5.09062 12.1552 5.49659C12.5232 5.90256 13.1993 6.50083 14.1833 7.29138Z" fill="#F33F3F"/>
</g>
</svg>
