<svg width="24" height="24" viewBox="0 0 24 24" fill="none" xmlns="http://www.w3.org/2000/svg">
<mask id="mask0_2449_9054" style="mask-type:alpha" maskUnits="userSpaceOnUse" x="0" y="0" width="24" height="24">
<rect width="24" height="24" fill="#D9D9D9"/>
</mask>
<g mask="url(#mask0_2449_9054)">
<path d="M3.14244 9.3711L6.23095 3.8921C6.32461 3.7281 6.43845 3.60918 6.57245 3.53535C6.70661 3.46168 6.8557 3.42485 7.0197 3.42485C7.1837 3.42485 7.33261 3.46168 7.46644 3.53535C7.60044 3.60918 7.71428 3.7281 7.80795 3.8921L10.8964 9.3711C10.9798 9.52293 11.0173 9.67477 11.0089 9.8266C11.0006 9.97844 10.9579 10.1227 10.8809 10.2594C10.8059 10.395 10.7009 10.5043 10.5659 10.5871C10.4311 10.6699 10.2779 10.7114 10.1064 10.7114H3.93244C3.76094 10.7114 3.60769 10.6699 3.47269 10.5871C3.33786 10.5043 3.23294 10.395 3.15794 10.2594C3.08094 10.1227 3.03828 9.97844 3.02994 9.8266C3.02161 9.67477 3.05911 9.52293 3.14244 9.3711ZM7.02894 20.7594C5.98678 20.7594 5.09961 20.3934 4.36745 19.6614C3.63545 18.9294 3.26945 18.0435 3.26945 17.0039C3.26945 15.9487 3.63545 15.0576 4.36745 14.3306C5.09961 13.6038 5.98678 13.2404 7.02894 13.2404C8.07128 13.2404 8.95845 13.6064 9.69044 14.3384C10.4226 15.0704 10.7887 15.9575 10.7887 16.9999C10.7887 18.0422 10.4226 18.9294 9.69044 19.6614C8.95845 20.3934 8.07128 20.7594 7.02894 20.7594ZM7.02894 19.2596C7.65594 19.2596 8.18928 19.0397 8.62895 18.5999C9.06878 18.1602 9.2887 17.6269 9.2887 16.9999C9.2887 16.3729 9.06878 15.8395 8.62895 15.3999C8.18928 14.96 7.65594 14.7401 7.02894 14.7401C6.40211 14.7401 5.86878 14.96 5.42895 15.3999C4.98928 15.8395 4.76945 16.3729 4.76945 16.9999C4.76945 17.6269 4.98928 18.1602 5.42895 18.5999C5.86878 19.0397 6.40211 19.2596 7.02894 19.2596ZM4.9482 9.21135H9.1002L7.01944 5.5671L4.9482 9.21135ZM13.2599 19.8556V14.1441C13.2599 13.8879 13.3465 13.6733 13.5197 13.5001C13.6929 13.3269 13.9075 13.2404 14.1637 13.2404H19.8752C20.1312 13.2404 20.3459 13.3269 20.5192 13.5001C20.6924 13.6733 20.7789 13.8879 20.7789 14.1441V19.8556C20.7789 20.1118 20.6924 20.3264 20.5192 20.4996C20.3459 20.6728 20.1312 20.7594 19.8752 20.7594H14.1637C13.9075 20.7594 13.6929 20.6728 13.5197 20.4996C13.3465 20.3264 13.2599 20.1118 13.2599 19.8556ZM14.7597 19.2596H19.2789V14.7401H14.7597V19.2596ZM16.4367 10.2286L15.3424 9.31535C14.3336 8.48319 13.5949 7.77677 13.1262 7.1961C12.6575 6.61527 12.4232 5.98002 12.4232 5.29035C12.4232 4.61719 12.6521 4.05435 13.1099 3.60185C13.5676 3.14919 14.1432 2.92285 14.8367 2.92285C15.261 2.92285 15.6578 3.02385 16.0269 3.22585C16.3963 3.42785 16.7271 3.71852 17.0194 4.09785C17.3118 3.72485 17.6458 3.43577 18.0214 3.2306C18.3969 3.02543 18.7937 2.92285 19.2117 2.92285C19.8964 2.92285 20.4682 3.15427 20.9272 3.6171C21.386 4.07994 21.6154 4.64727 21.6154 5.3191C21.6154 6.00244 21.3812 6.63127 20.9127 7.2056C20.444 7.77993 19.7053 8.48319 18.6964 9.31535L17.6022 10.2286C17.4377 10.3761 17.2434 10.4499 17.0192 10.4499C16.795 10.4499 16.6009 10.3761 16.4367 10.2286ZM17.0194 8.74985C18.2003 7.80119 19.0115 7.08327 19.4532 6.5961C19.8949 6.10893 20.1157 5.69035 20.1157 5.34035C20.1157 5.07235 20.0339 4.85243 19.8704 4.6806C19.7069 4.50877 19.4944 4.42285 19.2329 4.42285C19.0419 4.42285 18.8557 4.47835 18.6742 4.58935C18.4929 4.70019 18.2534 4.90435 17.9559 5.20185L17.0194 6.1076L16.0829 5.20185C15.7791 4.89802 15.5384 4.69219 15.3607 4.58435C15.1832 4.47669 14.9983 4.42285 14.8059 4.42285C14.5379 4.42285 14.3239 4.50394 14.1637 4.6661C14.0034 4.82827 13.9232 5.0466 13.9232 5.3211C13.9232 5.68393 14.144 6.10893 14.5857 6.5961C15.0274 7.08327 15.8386 7.80119 17.0194 8.74985Z" fill="#0E1328"/>
</g>
</svg>
