<svg width="24" height="24" viewBox="0 0 24 24" fill="none" xmlns="http://www.w3.org/2000/svg">
<mask id="mask0_2449_9060" style="mask-type:alpha" maskUnits="userSpaceOnUse" x="0" y="0" width="24" height="24">
<rect width="24" height="24" fill="#D9D9D9"/>
</mask>
<g mask="url(#mask0_2449_9060)">
<path d="M5.61525 18.5002V19.4425C5.61525 19.7363 5.51233 19.986 5.3065 20.1917C5.10067 20.3974 4.85067 20.5002 4.5565 20.5002C4.2625 20.5002 4.01292 20.3974 3.80775 20.1917C3.60258 19.986 3.5 19.7363 3.5 19.4425V12.3887C3.5 12.2849 3.50675 12.181 3.52025 12.0772C3.53375 11.9734 3.55642 11.8739 3.58825 11.7787L5.379 6.71571C5.49883 6.35554 5.716 6.06296 6.0305 5.83796C6.345 5.61279 6.697 5.50021 7.0865 5.50021H9.4615V4.63496C9.4615 4.37879 9.54817 4.16412 9.7215 3.99096C9.89467 3.81762 10.1093 3.73096 10.3655 3.73096H13.673C13.9292 3.73096 14.1438 3.81762 14.317 3.99096C14.4903 4.16412 14.577 4.37879 14.577 4.63496V5.50021H16.9135C17.303 5.50021 17.655 5.61279 17.9695 5.83796C18.284 6.06296 18.5012 6.35554 18.621 6.71571L20.4117 11.7787C20.4436 11.8739 20.4662 11.9734 20.4797 12.0772C20.4932 12.181 20.5 12.2849 20.5 12.3887V19.4425C20.5 19.7363 20.3971 19.986 20.1913 20.1917C19.9853 20.3974 19.7353 20.5002 19.4413 20.5002C19.1471 20.5002 18.8974 20.3974 18.6923 20.1917C18.4873 19.986 18.3848 19.7363 18.3848 19.4425V18.5002H5.61525ZM5.60775 10.5772H18.3923L17.2078 7.20221C17.1821 7.13804 17.1436 7.08837 17.0922 7.05321C17.0409 7.01787 16.98 7.00021 16.9095 7.00021H7.0905C7.02 7.00021 6.95908 7.01787 6.90775 7.05321C6.85642 7.08837 6.81792 7.13804 6.79225 7.20221L5.60775 10.5772ZM7.46375 15.8465C7.82758 15.8465 8.13617 15.719 8.3895 15.4642C8.64267 15.2095 8.76925 14.9003 8.76925 14.5365C8.76925 14.1726 8.64192 13.864 8.38725 13.6107C8.13242 13.3575 7.82308 13.231 7.45925 13.231C7.09542 13.231 6.78692 13.3583 6.53375 13.613C6.28042 13.8678 6.15375 14.1771 6.15375 14.541C6.15375 14.9048 6.28117 15.2133 6.536 15.4665C6.79067 15.7198 7.09992 15.8465 7.46375 15.8465ZM16.5408 15.8465C16.9046 15.8465 17.2131 15.719 17.4663 15.4642C17.7196 15.2095 17.8462 14.9003 17.8462 14.5365C17.8462 14.1726 17.7188 13.864 17.464 13.6107C17.2093 13.3575 16.9001 13.231 16.5363 13.231C16.1724 13.231 15.8638 13.3583 15.6105 13.613C15.3573 13.8678 15.2308 14.1771 15.2308 14.541C15.2308 14.9048 15.3581 15.2133 15.6128 15.4665C15.8676 15.7198 16.1769 15.8465 16.5408 15.8465ZM5 17.0002H19V12.0772H5V17.0002Z" fill="#0E1328"/>
</g>
</svg>
