<svg width="20" height="20" viewBox="0 0 20 20" fill="none" xmlns="http://www.w3.org/2000/svg">
<mask id="mask0_2183_2631" style="mask-type:alpha" maskUnits="userSpaceOnUse" x="0" y="0" width="20" height="20">
<rect width="20" height="20" fill="#D9D9D9"/>
</mask>
<g mask="url(#mask0_2183_2631)">
<path d="M4.67872 15.4161V16.2013C4.67872 16.4462 4.59296 16.6543 4.42143 16.8257C4.2499 16.9971 4.04157 17.0828 3.79643 17.0828C3.55143 17.0828 3.34345 16.9971 3.17247 16.8257C3.0015 16.6543 2.91602 16.4462 2.91602 16.2013V10.3232C2.91602 10.2367 2.92164 10.1501 2.93289 10.0636C2.94414 9.97708 2.96303 9.89416 2.98956 9.81486L4.48185 5.59569C4.58171 5.29555 4.76268 5.05173 5.02477 4.86423C5.28685 4.67659 5.58018 4.58277 5.90477 4.58277H7.88393V3.86173C7.88393 3.64826 7.95615 3.46937 8.1006 3.32507C8.2449 3.18062 8.42379 3.1084 8.63727 3.1084H11.3935C11.607 3.1084 11.7859 3.18062 11.9302 3.32507C12.0746 3.46937 12.1468 3.64826 12.1468 3.86173V4.58277H14.0939C14.4185 4.58277 14.7119 4.67659 14.9739 4.86423C15.236 5.05173 15.417 5.29555 15.5169 5.59569L17.0091 9.81486C17.0357 9.89416 17.0546 9.97708 17.0658 10.0636C17.0771 10.1501 17.0827 10.2367 17.0827 10.3232V16.2013C17.0827 16.4462 16.9969 16.6543 16.8254 16.8257C16.6537 16.9971 16.4454 17.0828 16.2004 17.0828C15.9553 17.0828 15.7472 16.9971 15.5762 16.8257C15.4054 16.6543 15.32 16.4462 15.32 16.2013V15.4161H4.67872ZM4.67247 8.81361H15.3262L14.3391 6.00111C14.3178 5.94764 14.2857 5.90625 14.2429 5.87694C14.2001 5.8475 14.1493 5.83277 14.0906 5.83277H5.9081C5.84935 5.83277 5.79859 5.8475 5.75581 5.87694C5.71303 5.90625 5.68095 5.94764 5.65956 6.00111L4.67247 8.81361ZM6.21914 13.2046C6.52234 13.2046 6.77949 13.0985 6.9906 12.8861C7.20157 12.6739 7.30706 12.4162 7.30706 12.113C7.30706 11.8098 7.20095 11.5526 6.98872 11.3415C6.77636 11.1306 6.51859 11.0251 6.21539 11.0251C5.9122 11.0251 5.65511 11.1312 5.44414 11.3434C5.23303 11.5558 5.12747 11.8135 5.12747 12.1167C5.12747 12.4199 5.23365 12.677 5.44602 12.888C5.65824 13.0991 5.91595 13.2046 6.21914 13.2046ZM13.7833 13.2046C14.0865 13.2046 14.3436 13.0985 14.5546 12.8861C14.7657 12.6739 14.8712 12.4162 14.8712 12.113C14.8712 11.8098 14.765 11.5526 14.5527 11.3415C14.3405 11.1306 14.0828 11.0251 13.7796 11.0251C13.4764 11.0251 13.2192 11.1312 13.0081 11.3434C12.7971 11.5558 12.6916 11.8135 12.6916 12.1167C12.6916 12.4199 12.7978 12.677 13.01 12.888C13.2223 13.0991 13.4801 13.2046 13.7833 13.2046ZM4.16602 14.1661H15.8327V10.0636H4.16602V14.1661Z" fill="#F33F3F"/>
</g>
</svg>
