<svg width="24" height="24" viewBox="0 0 24 24" fill="none" xmlns="http://www.w3.org/2000/svg">
<mask id="mask0_2216_52823" style="mask-type:alpha" maskUnits="userSpaceOnUse" x="0" y="0" width="24" height="24">
<rect width="24" height="24" fill="#D9D9D9"/>
</mask>
<g mask="url(#mask0_2216_52823)">
<path d="M16.6421 9.83656H9.6211C8.57744 9.83656 7.67935 10.1795 6.92685 10.8653C6.17418 11.5513 5.79785 12.4007 5.79785 13.4136C5.79785 14.4264 6.17418 15.2773 6.92685 15.9663C7.67935 16.6555 8.57744 17.0001 9.6211 17.0001H16.0479C16.2607 17.0001 16.4389 17.0719 16.5826 17.2156C16.7261 17.3591 16.7979 17.5372 16.7979 17.7501C16.7979 17.9629 16.7261 18.1411 16.5826 18.2846C16.4389 18.4282 16.2607 18.5001 16.0479 18.5001H9.6211C8.15827 18.5001 6.90535 18.0103 5.86235 17.0308C4.81935 16.0513 4.29785 14.8456 4.29785 13.4136C4.29785 11.9816 4.81935 10.7774 5.86235 9.80106C6.90535 8.82473 8.15827 8.33656 9.6211 8.33656H16.6421L14.3864 6.08081C14.2479 5.94231 14.177 5.76831 14.1739 5.55881C14.1707 5.34915 14.2415 5.1719 14.3864 5.02706C14.5312 4.88223 14.7069 4.80981 14.9134 4.80981C15.1197 4.80981 15.2953 4.88223 15.4401 5.02706L18.8671 8.45381C18.9608 8.54748 19.0268 8.64623 19.0651 8.75006C19.1036 8.8539 19.1229 8.96606 19.1229 9.08656C19.1229 9.20706 19.1036 9.31923 19.0651 9.42306C19.0268 9.5269 18.9608 9.62565 18.8671 9.71931L15.4401 13.1463C15.3018 13.2846 15.1278 13.3555 14.9181 13.3588C14.7084 13.362 14.5312 13.2911 14.3864 13.1463C14.2415 13.0013 14.1691 12.8256 14.1691 12.6193C14.1691 12.413 14.2415 12.2373 14.3864 12.0923L16.6421 9.83656Z" fill="#0E1328"/>
</g>
</svg>
