<svg width="25" height="25" viewBox="0 0 25 25" fill="none" xmlns="http://www.w3.org/2000/svg">
<mask id="mask0_2642_19002" style="mask-type:alpha" maskUnits="userSpaceOnUse" x="0" y="0" width="25" height="25">
<rect x="0.801758" y="0.799316" width="24" height="24" fill="#D9D9D9"/>
</mask>
<g mask="url(#mask0_2642_19002)">
<path d="M7.20576 22.2993V13.4571C6.30576 13.2237 5.59676 12.7856 5.07876 12.1426C4.56076 11.4996 4.30176 10.7473 4.30176 9.88582V3.29932H5.80176V9.13582H7.20576V3.29932H8.70551V9.13582H10.1095V3.29932H11.6095V9.88582C11.6095 10.7473 11.3505 11.4996 10.8325 12.1426C10.3145 12.7856 9.60551 13.2237 8.70551 13.4571V22.2993H7.20576ZM16.8883 22.2993V13.1013C15.9883 12.7948 15.2793 12.2041 14.7615 11.3291C14.2435 10.4541 13.9845 9.43073 13.9845 8.25907C13.9845 6.88457 14.3425 5.71432 15.0585 4.74832C15.7745 3.78232 16.6344 3.29932 17.6383 3.29932C18.6486 3.29932 19.5118 3.7849 20.2278 4.75607C20.9438 5.72723 21.3018 6.89998 21.3018 8.27432C21.3018 9.45248 21.0412 10.4765 20.52 11.3463C19.9988 12.2163 19.2883 12.8013 18.3883 13.1013V22.2993H16.8883Z" fill="#F33F3F"/>
</g>
</svg>
