<svg width="40" height="40" viewBox="0 0 40 40" fill="none" xmlns="http://www.w3.org/2000/svg">
<mask id="mask0_2123_1326" style="mask-type:alpha" maskUnits="userSpaceOnUse" x="8" y="8" width="24" height="24">
<rect x="8" y="8" width="24" height="24" fill="#D9D9D9"/>
</mask>
<g mask="url(#mask0_2123_1326)">
<path d="M19.5 20.5V24C19.5 24.1417 19.548 24.2604 19.644 24.3562C19.74 24.4521 19.8589 24.5 20.0008 24.5C20.1426 24.5 20.2612 24.4521 20.3567 24.3562C20.4522 24.2604 20.5 24.1417 20.5 24V20.5H24C24.1417 20.5 24.2604 20.452 24.3562 20.356C24.4521 20.26 24.5 20.1411 24.5 19.9993C24.5 19.8574 24.4521 19.7388 24.3562 19.6433C24.2604 19.5478 24.1417 19.5 24 19.5H20.5V16C20.5 15.8583 20.452 15.7396 20.356 15.6438C20.26 15.5479 20.1411 15.5 19.9993 15.5C19.8574 15.5 19.7388 15.5479 19.6433 15.6438C19.5478 15.7396 19.5 15.8583 19.5 16V19.5H16C15.8583 19.5 15.7396 19.548 15.6438 19.644C15.5479 19.74 15.5 19.8589 15.5 20.0008C15.5 20.1426 15.5479 20.2612 15.6438 20.3567C15.7396 20.4522 15.8583 20.5 16 20.5H19.5ZM20.0033 29C18.7587 29 17.5887 28.7638 16.493 28.2915C15.3975 27.8192 14.4445 27.1782 13.634 26.3685C12.8235 25.5588 12.1819 24.6067 11.7092 23.512C11.2364 22.4175 11 21.2479 11 20.0033C11 18.7587 11.2362 17.5887 11.7085 16.493C12.1808 15.3975 12.8218 14.4445 13.6315 13.634C14.4412 12.8235 15.3933 12.1819 16.488 11.7092C17.5825 11.2364 18.7521 11 19.9967 11C21.2413 11 22.4113 11.2362 23.507 11.7085C24.6025 12.1808 25.5555 12.8218 26.366 13.6315C27.1765 14.4412 27.8181 15.3933 28.2908 16.488C28.7636 17.5825 29 18.7521 29 19.9967C29 21.2413 28.7638 22.4113 28.2915 23.507C27.8192 24.6025 27.1782 25.5555 26.3685 26.366C25.5588 27.1765 24.6067 27.8181 23.512 28.2908C22.4175 28.7636 21.2479 29 20.0033 29ZM20 28C22.2333 28 24.125 27.225 25.675 25.675C27.225 24.125 28 22.2333 28 20C28 17.7667 27.225 15.875 25.675 14.325C24.125 12.775 22.2333 12 20 12C17.7667 12 15.875 12.775 14.325 14.325C12.775 15.875 12 17.7667 12 20C12 22.2333 12.775 24.125 14.325 25.675C15.875 27.225 17.7667 28 20 28Z" fill="#F33F3F"/>
</g>
</svg>
