<svg width="64" height="64" viewBox="0 0 64 64" fill="none" xmlns="http://www.w3.org/2000/svg">
<path d="M23.9998 28.6667C19.9465 28.6667 16.6665 25.3867 16.6665 21.3333C16.6665 17.28 19.9465 14 23.9998 14C28.0532 14 31.3332 17.28 31.3332 21.3333C31.3332 25.3867 28.0532 28.6667 23.9998 28.6667ZM23.9998 18C22.1598 18 20.6665 19.4933 20.6665 21.3333C20.6665 23.1733 22.1598 24.6667 23.9998 24.6667C25.8398 24.6667 27.3332 23.1733 27.3332 21.3333C27.3332 19.4933 25.8398 18 23.9998 18Z" fill="#9D2B2F"/>
<path d="M39.9999 60.6666H23.9999C9.51992 60.6666 3.33325 54.4799 3.33325 39.9999V23.9999C3.33325 9.51992 9.51992 3.33325 23.9999 3.33325H34.6666C35.7599 3.33325 36.6666 4.23992 36.6666 5.33325C36.6666 6.42659 35.7599 7.33325 34.6666 7.33325H23.9999C11.7066 7.33325 7.33325 11.7066 7.33325 23.9999V39.9999C7.33325 52.2933 11.7066 56.6666 23.9999 56.6666H39.9999C52.2933 56.6666 56.6666 52.2933 56.6666 39.9999V26.6666C56.6666 25.5732 57.5732 24.6666 58.6666 24.6666C59.7599 24.6666 60.6666 25.5732 60.6666 26.6666V39.9999C60.6666 54.4799 54.4799 60.6666 39.9999 60.6666Z" fill="#9D2B2F"/>
<path d="M48 23.3331C46.9067 23.3331 46 22.4264 46 21.3331V5.33309C46 4.53309 46.48 3.78642 47.2267 3.49309C47.9733 3.19976 48.8267 3.35976 49.4133 3.91976L54.7467 9.25309C55.52 10.0264 55.52 11.3064 54.7467 12.0798C53.9733 12.8531 52.6933 12.8531 51.92 12.0798L50 10.1598V21.3331C50 22.4264 49.0933 23.3331 48 23.3331Z" fill="#9D2B2F"/>
<path d="M42.6664 12.6665C42.1598 12.6665 41.6531 12.4798 41.2531 12.0798C40.4798 11.3065 40.4798 10.0265 41.2531 9.25318L46.5864 3.91984C47.3598 3.14651 48.6398 3.14651 49.4131 3.91984C50.1864 4.69318 50.1864 5.97318 49.4131 6.74651L44.0798 12.0798C43.6798 12.4798 43.1731 12.6665 42.6664 12.6665Z" fill="#9D2B2F"/>
<path d="M7.1194 52.5334C6.4794 52.5334 5.8394 52.2134 5.46606 51.6534C4.85273 50.7467 5.09273 49.4934 5.9994 48.8801L19.1461 40.0534C22.0261 38.1334 25.9994 38.3467 28.6127 40.5601L29.4927 41.3334C30.8261 42.4801 33.0927 42.4801 34.3994 41.3334L45.4927 31.8134C48.3194 29.3867 52.7727 29.3867 55.6261 31.8134L59.9727 35.5467C60.7994 36.2667 60.9061 37.5201 60.1861 38.3734C59.4661 39.2001 58.1861 39.3067 57.3594 38.5867L53.0127 34.8534C51.6794 33.7067 49.4394 33.7067 48.1061 34.8534L37.0127 44.3734C34.1861 46.8001 29.7327 46.8001 26.8794 44.3734L25.9994 43.6001C24.7727 42.5601 22.7461 42.4534 21.3861 43.3867L8.26607 52.2134C7.89273 52.4267 7.49273 52.5334 7.1194 52.5334Z" fill="#9D2B2F"/>
</svg>
