<svg width="24" height="24" viewBox="0 0 24 24" fill="none" xmlns="http://www.w3.org/2000/svg">
<mask id="mask0_2216_52828" style="mask-type:alpha" maskUnits="userSpaceOnUse" x="0" y="0" width="24" height="24">
<rect width="24" height="24" fill="#D9D9D9"/>
</mask>
<g mask="url(#mask0_2216_52828)">
<path d="M12.0043 15.1538C13.0204 15.1538 13.8827 14.7981 14.591 14.0868C15.2994 13.3754 15.6535 12.5117 15.6535 11.4955C15.6535 10.4793 15.2979 9.61708 14.5865 8.90875C13.8752 8.20042 13.0114 7.84625 11.9953 7.84625C10.9791 7.84625 10.1169 8.20192 9.40852 8.91325C8.70019 9.62458 8.34602 10.4883 8.34602 11.5045C8.34602 12.5207 8.70169 13.3829 9.41302 14.0913C10.1244 14.7996 10.9881 15.1538 12.0043 15.1538ZM11.9998 14.2C11.2498 14.2 10.6123 13.9375 10.0873 13.4125C9.56227 12.8875 9.29977 12.25 9.29977 11.5C9.29977 10.75 9.56227 10.1125 10.0873 9.5875C10.6123 9.0625 11.2498 8.8 11.9998 8.8C12.7498 8.8 13.3873 9.0625 13.9123 9.5875C14.4373 10.1125 14.6998 10.75 14.6998 11.5C14.6998 12.25 14.4373 12.8875 13.9123 13.4125C13.3873 13.9375 12.7498 14.2 11.9998 14.2ZM11.9998 18C10.0228 18 8.2096 17.4769 6.56027 16.4308C4.91094 15.3846 3.5786 14.0128 2.56327 12.3155C2.47994 12.1782 2.4206 12.0428 2.38527 11.9095C2.3501 11.7762 2.33252 11.6393 2.33252 11.499C2.33252 11.3587 2.3501 11.2222 2.38527 11.0895C2.4206 10.9568 2.47994 10.8218 2.56327 10.6845C3.5786 8.98717 4.91094 7.61542 6.56027 6.56925C8.2096 5.52308 10.0228 5 11.9998 5C13.9768 5 15.7899 5.52308 17.4393 6.56925C19.0886 7.61542 20.4209 8.98717 21.4363 10.6845C21.5196 10.8218 21.5789 10.9572 21.6143 11.0905C21.6494 11.2238 21.667 11.3607 21.667 11.501C21.667 11.6413 21.6494 11.7778 21.6143 11.9105C21.5789 12.0432 21.5196 12.1782 21.4363 12.3155C20.4209 14.0128 19.0886 15.3846 17.4393 16.4308C15.7899 17.4769 13.9768 18 11.9998 18ZM11.9998 17C13.8831 17 15.6123 16.5042 17.1873 15.5125C18.7623 14.5208 19.9664 13.1833 20.7998 11.5C19.9664 9.81667 18.7623 8.47917 17.1873 7.4875C15.6123 6.49583 13.8831 6 11.9998 6C10.1164 6 8.38727 6.49583 6.81227 7.4875C5.23727 8.47917 4.0331 9.81667 3.19977 11.5C4.0331 13.1833 5.23727 14.5208 6.81227 15.5125C8.38727 16.5042 10.1164 17 11.9998 17Z" fill="#0E1328"/>
</g>
</svg>
